<?xml version="1.0" ?><svg id="Layer_1" style="enable-background:new 0 0 48 48;" version="1.1" viewBox="0 0 48 48" xml:space="preserve" xmlns="http://www.w3.org/2000/svg" xmlns:xlink="http://www.w3.org/1999/xlink"><style type="text/css">
	.st0{fill:#FBD4C6;}
	.st1{fill:#FFD85F;}
	.st2{fill:#FE6778;}
	.st3{fill:#0B405B;}
	.st4{fill:#5B9CD8;}
	.st5{fill:#A9E0F9;}
	.st6{fill:#B9BBBC;}
	.st7{fill:#FEFDFF;}
	.st8{fill:#F8F299;}
	.st9{fill:#92CDA3;}
	.st10{fill:#FFDBAC;}
	.st11{fill:#E1F1FE;}
	.st12{fill:#E5BEB3;}
</style><g><g><path class="st4" d="M3.98,1.5C2.61,1.5,1.5,2.61,1.5,3.98v40.04c0,1.37,1.11,2.48,2.48,2.48h5.35v-45H3.98z"/></g><g><rect class="st7" height="45" width="29.18" x="9.33" y="1.5"/></g><g><polyline class="st2" points="23.56,1.5 23.56,19.62 27.83,15.36 32.09,19.62 32.09,1.5   "/></g><g><path class="st3" d="M38.52,47.5H3.98c-1.92,0-3.48-1.56-3.48-3.48V3.98c0-1.92,1.56-3.48,3.48-3.48h34.54c0.55,0,1,0.45,1,1v45    C39.52,47.05,39.07,47.5,38.52,47.5z M3.98,2.5C3.16,2.5,2.5,3.16,2.5,3.98v40.04c0,0.82,0.66,1.48,1.48,1.48h33.54v-43H3.98z"/></g><g><path class="st1" d="M38.52,30.53L38.52,30.53c-4.41,0-7.98,3.57-7.98,7.98v0c0,4.41,3.57,7.98,7.98,7.98h0    c4.41,0,7.98-3.57,7.98-7.98v0C46.5,34.11,42.93,30.53,38.52,30.53z"/></g><g><path class="st3" d="M38.52,47.5c-4.95,0-8.98-4.03-8.98-8.98s4.03-8.98,8.98-8.98c4.95,0,8.98,4.03,8.98,8.98    S43.47,47.5,38.52,47.5z M38.52,31.53c-3.85,0-6.98,3.13-6.98,6.98s3.13,6.98,6.98,6.98c3.85,0,6.98-3.13,6.98-6.98    S42.37,31.53,38.52,31.53z"/></g><g><path class="st3" d="M9.33,44.5c-0.55,0-1-0.45-1-1v-42c0-0.55,0.45-1,1-1s1,0.45,1,1v42C10.33,44.05,9.88,44.5,9.33,44.5z"/></g><g><path class="st3" d="M32.09,20.62c-0.26,0-0.51-0.1-0.71-0.29l-3.56-3.55l-3.56,3.55c-0.29,0.29-0.72,0.37-1.09,0.22    c-0.37-0.16-0.62-0.52-0.62-0.92V1.5c0-0.55,0.45-1,1-1s1,0.45,1,1v15.71l2.56-2.55c0.39-0.39,1.02-0.39,1.41,0l2.56,2.55V1.5    c0-0.55,0.45-1,1-1s1,0.45,1,1v18.12c0,0.4-0.24,0.77-0.62,0.92C32.35,20.59,32.22,20.62,32.09,20.62z"/></g><g><path class="st3" d="M38.52,43.2c-0.55,0-1-0.45-1-1v-7.37c0-0.55,0.45-1,1-1s1,0.45,1,1v7.37C39.52,42.75,39.07,43.2,38.52,43.2z    "/></g><g><path class="st3" d="M42.2,39.52h-7.37c-0.55,0-1-0.45-1-1s0.45-1,1-1h7.37c0.55,0,1,0.45,1,1S42.75,39.52,42.2,39.52z"/></g></g></svg>