<?xml version="1.0" ?><svg viewBox="0 0 512 512" xmlns="http://www.w3.org/2000/svg"><defs><style>.cls-1{fill:#d9571e;}.cls-2{fill:#ff7728;}.cls-3{fill:#007374;}.cls-4{fill:#0de7ff;}.cls-5{fill:#212b30;}</style></defs><title/><g data-name="Layer 3" id="Layer_3"><path class="cls-1" d="M435.64,187.15H278.87V436h33.18l30.22-45.34a10,10,0,0,1,8.28-4.43h85.09A13.27,13.27,0,0,0,448.91,373V200.43A13.28,13.28,0,0,0,435.64,187.15Z"/><path class="cls-2" d="M136,200.43V373a13.27,13.27,0,0,0,13.27,13.27h85.09a10,10,0,0,1,8.28,4.43L272.87,436l30.22-45.34a10,10,0,0,1,8.28-4.43h85.09A13.27,13.27,0,0,0,409.73,373V200.43a13.28,13.28,0,0,0-13.27-13.28H149.27A13.28,13.28,0,0,0,136,200.43Z"/><path class="cls-3" d="M360.64,136H203.87V384.85h33.18l30.22-45.34a10,10,0,0,1,8.28-4.43h85.09a13.27,13.27,0,0,0,13.27-13.27V149.27A13.27,13.27,0,0,0,360.64,136Z"/><path class="cls-4" d="M61,149.27V321.81a13.27,13.27,0,0,0,13.27,13.27h85.09a10,10,0,0,1,8.28,4.43l30.23,45.34,30.22-45.34a10,10,0,0,1,8.28-4.43h85.09a13.27,13.27,0,0,0,13.27-13.27V149.27A13.27,13.27,0,0,0,321.46,136H74.27A13.27,13.27,0,0,0,61,149.27Z"/></g><g id="Eunoicon"><path class="cls-5" d="M437.54,176H386V149.46A23.48,23.48,0,0,0,362.54,126H74.46A23.48,23.48,0,0,0,51,149.46V322.54A23.49,23.49,0,0,0,74.46,346H126v26.54A23.49,23.49,0,0,0,149.46,396c1.36,0,85.28-.11,85.53.26,32.44,48.66,30.68,47.51,35.07,49.12,2.5.92.49.59,43.44.62a10,10,0,0,0,8.32-4.45L352,396.26c.27-.4-5.64-.26,85.53-.26A23.49,23.49,0,0,0,461,372.54V199.46A23.48,23.48,0,0,0,437.54,176ZM366,149.46V322.54a3.46,3.46,0,0,1-3.46,3.46h-16.8c.36-2.38.43-177.1,0-180h16.8A3.46,3.46,0,0,1,366,149.46ZM71,322.54V149.46A3.46,3.46,0,0,1,74.46,146H322.54a3.46,3.46,0,0,1,3.46,3.46V322.54a3.46,3.46,0,0,1-3.46,3.46H237.49a20.54,20.54,0,0,0-17.12,9.16L198.5,368l-21.87-32.81A20.54,20.54,0,0,0,159.51,326h-85A3.46,3.46,0,0,1,71,322.54Zm75,50V346h13.51c.59,0-.75-1.4,20.31,30H149.46A3.46,3.46,0,0,1,146,372.54ZM217.18,376c21-31.39,19.72-30,20.31-30h15.66l-20,30Zm91,50h-16c21.05-31.39,19.72-30,20.31-30h15.66Zm4.34-50a20.54,20.54,0,0,0-17.12,9.16L273.5,418c-10.75-16.11-21.51-32.29-22.16-33.21C278.69,343.93,276.9,346,277.49,346h85.05A23.49,23.49,0,0,0,386,322.54V196h11.54a3.46,3.46,0,0,1,3.46,3.46V372.54a3.46,3.46,0,0,1-3.46,3.46ZM441,372.54a3.46,3.46,0,0,1-3.46,3.46h-16.8c.36-2.38.43-177.1,0-180h16.8a3.46,3.46,0,0,1,3.46,3.46Z"/></g></svg>