<?xml version="1.0" ?><svg id="Layer_1" style="enable-background:new 0 0 66 66;" version="1.1" viewBox="0 0 66 66" xml:space="preserve" xmlns="http://www.w3.org/2000/svg" xmlns:xlink="http://www.w3.org/1999/xlink"><style type="text/css">
	.st0{fill:#FFAF57;}
	.st1{fill:#FFD550;}
	.st2{fill:#00CC6F;}
	.st3{fill:#EFEFEF;}
	.st4{fill:#FFFFFF;}
	.st5{fill:#F95353;}
	.st6{fill:#DDDEE0;}
	.st7{fill:#178BFF;}
	.st8{fill:#CECECE;}
	.st9{fill:none;}
</style><g id="_x38_4_2_"><g id="_x38_6"><g><g><path class="st3" d="M3.3,23V60c0,2.2,1.8,4,4,4h51.4c2.2,0,4-1.8,4-4V23H3.3z"/></g><g><g><g><path class="st1" d="M22,34.9v-5.3c0-0.6,0.5-1,1-1h6.4c0.6,0,1,0.5,1,1v5.3c0,0.6-0.5,1-1,1H23C22.4,35.9,22,35.4,22,34.9z"/></g><g><path class="st4" d="M35.6,34.9v-5.3c0-0.6,0.5-1,1-1H43c0.6,0,1,0.5,1,1v5.3c0,0.6-0.5,1-1,1h-6.4        C36,35.9,35.6,35.4,35.6,34.9z"/></g><g><path class="st4" d="M49.1,34.9v-5.3c0-0.6,0.5-1,1-1h6.4c0.6,0,1,0.5,1,1v5.3c0,0.6-0.5,1-1,1h-6.4        C49.6,35.9,49.1,35.4,49.1,34.9z"/></g></g><g><g><path class="st4" d="M8.4,46.2v-5.3c0-0.6,0.5-1,1-1h6.4c0.6,0,1,0.5,1,1v5.3c0,0.6-0.5,1-1,1H9.4C8.8,47.2,8.4,46.8,8.4,46.2        z"/></g><g><path class="st1" d="M22,46.2v-5.3c0-0.6,0.5-1,1-1h6.4c0.6,0,1,0.5,1,1v5.3c0,0.6-0.5,1-1,1H23C22.4,47.2,22,46.8,22,46.2z"/></g><g><path class="st4" d="M35.6,46.2v-5.3c0-0.6,0.5-1,1-1H43c0.6,0,1,0.5,1,1v5.3c0,0.6-0.5,1-1,1h-6.4        C36,47.2,35.6,46.8,35.6,46.2z"/></g><g><path class="st4" d="M49.1,46.2v-5.3c0-0.6,0.5-1,1-1h6.4c0.6,0,1,0.5,1,1v5.3c0,0.6-0.5,1-1,1h-6.4        C49.6,47.2,49.1,46.8,49.1,46.2z"/></g></g><g><g><path class="st4" d="M8.4,57.5v-5.3c0-0.6,0.5-1,1-1h6.4c0.6,0,1,0.5,1,1v5.3c0,0.6-0.5,1-1,1H9.4C8.8,58.5,8.4,58.1,8.4,57.5        z"/></g><g><path class="st1" d="M22,57.5v-5.3c0-0.6,0.5-1,1-1h6.4c0.6,0,1,0.5,1,1v5.3c0,0.6-0.5,1-1,1H23C22.4,58.5,22,58.1,22,57.5z"/></g></g></g><g><path class="st5" d="M62.7,14.3V23H3.3v-8.8c0-2.2,1.8-4,4-4H13v4.6c0,0.9,0.4,1.7,0.9,2.2c0.6,0.6,1.4,0.9,2.2,0.9      c1.7,0,3.2-1.4,3.2-3.2v-4.6h10.5v4.6c0,0.9,0.4,1.7,0.9,2.2c0.6,0.6,1.4,0.9,2.2,0.9c1.8,0,3.2-1.4,3.2-3.2v-4.6h10.5v4.6      c0,0.9,0.4,1.7,0.9,2.2c0.6,0.6,1.4,0.9,2.2,0.9c1.8,0,3.2-1.4,3.2-3.2v-4.6h5.7C60.9,10.2,62.7,12,62.7,14.3z"/></g><g><g><path class="st3" d="M19.4,5.2v9.6c0,1.7-1.4,3.2-3.2,3.2h0c-1.7,0-3.2-1.4-3.2-3.2V5.2C13,3.4,14.5,2,16.2,2h0       C18,2,19.4,3.4,19.4,5.2z"/></g><g><path class="st3" d="M36.2,5.2v9.6c0,1.7-1.4,3.2-3.2,3.2h0c-1.7,0-3.2-1.4-3.2-3.2V5.2C29.8,3.4,31.3,2,33,2h0       C34.7,2,36.2,3.4,36.2,5.2z"/></g><g><path class="st3" d="M53,5.2v9.6c0,1.7-1.4,3.2-3.2,3.2h0c-1.7,0-3.2-1.4-3.2-3.2V5.2C46.6,3.4,48,2,49.8,2h0       C51.5,2,53,3.4,53,5.2z"/></g></g></g></g><g id="_x38_2_1_"><path d="M7.3,65h51.4c2.8,0,5-2.3,5-5c0-14.4,0-30.1,0-45.7c0-2.8-2.3-5-5-5H54V5.2C54,2.9,52.1,1,49.8,1s-4.2,1.9-4.2,4.2v4.1    h-8.5V5.2C37.2,2.9,35.3,1,33,1s-4.2,1.9-4.2,4.2v4.1h-8.5V5.2c0-2.3-1.9-4.2-4.2-4.2S12,2.9,12,5.2v4.1H7.3c-2.8,0-5,2.3-5,5    c0,15.6,0,31.3,0,45.7C2.3,62.7,4.5,65,7.3,65z M58.7,63H7.3c-1.7,0-3-1.4-3-3V24h57.5V60C61.7,61.6,60.4,63,58.7,63z M47.6,5.2    c0-1.2,1-2.2,2.2-2.2C51,3,52,4,52,5.2v9.6c0,1.2-1,2.2-2.2,2.2c-1.2,0-2.2-1-2.2-2.2C47.6,14.7,47.6,4.9,47.6,5.2z M33,3    c1.2,0,2.2,1,2.2,2.2c0,0.2,0,10.1,0,9.6c0,1.2-1,2.2-2.2,2.2c-1.2,0-2.2-1-2.2-2.2c0-0.1,0-10.3,0-9.6C30.8,4,31.8,3,33,3z     M14,5.2C14,4,15,3,16.2,3s2.2,1,2.2,2.2c0,0.3,0,10.1,0,9.6c0,1.2-0.9,2.2-2.2,2.2c-1.2,0-2.2-1-2.2-2.2V5.2z M7.3,11.2H12v3.6    c0,2.4,2,4.2,4.2,4.2c2.3,0,4.2-1.9,4.2-4.2v-3.6h8.5v3.6c0,3.6,4.4,5.7,7.1,2.9c0.8-0.8,1.2-1.8,1.2-2.9v-3.6h8.5v3.6    c0,2.3,1.8,4.2,4.2,4.2c2.3,0,4.2-1.9,4.2-4.2v-3.6h4.7c1.7,0,3,1.4,3,3V22H4.3v-7.8C4.3,12.6,5.6,11.2,7.3,11.2z"/><path d="M29.4,27.5H23c-1.1,0-2,0.9-2,2v5.3c0,1.1,0.9,2,2,2h6.4c1.1,0,2-0.9,2-2v-5.3C31.4,28.4,30.5,27.5,29.4,27.5z M29.4,34.9    H23c0,0,0,0,0,0l0-5.4l6.5,0L29.4,34.9z"/><path d="M43,27.5h-6.4c-1.1,0-2,0.9-2,2v5.3c0,1.1,0.9,2,2,2H43c1.1,0,2-0.9,2-2v-5.3C45,28.4,44.1,27.5,43,27.5z M43,34.9h-6.4    c0,0,0,0,0,0l0-5.4l6.5,0L43,34.9z"/><path d="M56.6,27.5h-6.4c-1.1,0-2,0.9-2,2v5.3c0,1.1,0.9,2,2,2h6.4c1.1,0,2-0.9,2-2v-5.3C58.6,28.4,57.7,27.5,56.6,27.5z     M56.6,34.9h-6.4c0,0,0,0,0,0l0-5.4l6.5,0L56.6,34.9z"/><path d="M15.8,38.8H9.4c-1.1,0-2,0.9-2,2v5.3c0,1.1,0.9,2,2,2h6.4c1.1,0,2-0.9,2-2v-5.3C17.9,39.7,16.9,38.8,15.8,38.8z     M15.8,46.2H9.4c0,0,0,0,0,0l0-5.4l6.5,0L15.8,46.2z"/><path d="M29.4,38.8H23c-1.1,0-2,0.9-2,2v5.3c0,1.1,0.9,2,2,2h6.4c1.1,0,2-0.9,2-2v-5.3C31.4,39.7,30.5,38.8,29.4,38.8z M29.4,46.2    H23c0,0,0,0,0,0l0-5.4l6.5,0L29.4,46.2z"/><path d="M43,38.8h-6.4c-1.1,0-2,0.9-2,2v5.3c0,1.1,0.9,2,2,2H43c1.1,0,2-0.9,2-2v-5.3C45,39.7,44.1,38.8,43,38.8z M43,46.2h-6.4    c0,0,0,0,0,0l0-5.4l6.5,0L43,46.2z"/><path d="M56.6,38.8h-6.4c-1.1,0-2,0.9-2,2v5.3c0,1.1,0.9,2,2,2h6.4c1.1,0,2-0.9,2-2v-5.3C58.6,39.7,57.7,38.8,56.6,38.8z     M56.6,46.2h-6.4c0,0,0,0,0,0l0-5.4l6.5,0L56.6,46.2z"/><path d="M15.8,50.1H9.4c-1.1,0-2,0.9-2,2v5.3c0,1.1,0.9,2,2,2h6.4c1.1,0,2-0.9,2-2v-5.3C17.9,51,16.9,50.1,15.8,50.1z M15.8,57.5    H9.4c0,0,0,0,0,0l0-5.4l6.5,0L15.8,57.5z"/><path d="M29.4,50.1H23c-1.1,0-2,0.9-2,2v5.3c0,1.1,0.9,2,2,2h6.4c1.1,0,2-0.9,2-2v-5.3C31.4,51,30.5,50.1,29.4,50.1z M29.4,57.5    H23c0,0,0,0,0,0l0-5.4l6.5,0L29.4,57.5z"/></g></g></svg>