<?xml version="1.0" ?><!DOCTYPE svg  PUBLIC '-//W3C//DTD SVG 1.1//EN'  'http://www.w3.org/Graphics/SVG/1.1/DTD/svg11.dtd'><svg enable-background="new 0 0 128 128" id="Layer_1" version="1.1" viewBox="0 0 128 128" xml:space="preserve" xmlns="http://www.w3.org/2000/svg" xmlns:xlink="http://www.w3.org/1999/xlink"><rect fill="#FFFFFF" height="72" width="92" x="13" y="22"/><rect fill="#F3B0AE" height="16" width="92" x="13" y="22"/><polyline fill="none" points="  105,67 105,94 13,94 13,22 105,22 105,58 " stroke="#4A7DA7" stroke-linecap="round" stroke-linejoin="round" stroke-miterlimit="10" stroke-width="4"/><line fill="none" stroke="#B0D6EC" stroke-linecap="round" stroke-miterlimit="10" stroke-width="2" x1="21" x2="97" y1="53" y2="53"/><line fill="none" stroke="#B0D6EC" stroke-linecap="round" stroke-miterlimit="10" stroke-width="2" x1="21" x2="97" y1="66" y2="66"/><line fill="none" stroke="#B0D6EC" stroke-linecap="round" stroke-miterlimit="10" stroke-width="2" x1="21" x2="97" y1="79" y2="79"/><line fill="none" stroke="#B0D6EC" stroke-linecap="round" stroke-miterlimit="10" stroke-width="2" x1="59" x2="59" y1="43" y2="88"/><line fill="none" stroke="#B0D6EC" stroke-linecap="round" stroke-miterlimit="10" stroke-width="2" x1="73" x2="73" y1="43" y2="88"/><line fill="none" stroke="#B0D6EC" stroke-linecap="round" stroke-miterlimit="10" stroke-width="2" x1="87" x2="87" y1="43" y2="88"/><line fill="none" stroke="#B0D6EC" stroke-linecap="round" stroke-miterlimit="10" stroke-width="2" x1="31" x2="31" y1="43" y2="88"/><line fill="none" stroke="#B0D6EC" stroke-linecap="round" stroke-miterlimit="10" stroke-width="2" x1="45" x2="45" y1="43" y2="88"/><line fill="#D8E3EA" x1="88" x2="100" y1="53" y2="53"/><path d="M32,21.68  c0-3.83,1.34-6.93,3-6.93s3,3.1,3,6.93s-1.34,6.93-3,6.93" fill="none" stroke="#4A7DA7" stroke-linecap="round" stroke-miterlimit="10" stroke-width="2"/><path d="M56,21.68  c0-3.83,1.34-6.93,3-6.93s3,3.1,3,6.93s-1.34,6.93-3,6.93" fill="none" stroke="#4A7DA7" stroke-linecap="round" stroke-miterlimit="10" stroke-width="2"/><path d="M80,21.68  c0-3.83,1.34-6.93,3-6.93s3,3.1,3,6.93s-1.34,6.93-3,6.93" fill="none" stroke="#4A7DA7" stroke-linecap="round" stroke-miterlimit="10" stroke-width="2"/><polygon fill="#FEE789" points="46.82,66.85 80,90.6 113.25,66.91 "/><polygon fill="#FFF2BC" points="113.46,66.91 80.11,90.6 46.69,66.85 46,67.15 46,114 114,114 114,67.15 "/><rect fill="none" height="47" stroke="#4A7DA7" stroke-linecap="round" stroke-linejoin="round" stroke-miterlimit="10" stroke-width="4" width="68" x="46" y="67"/><line fill="none" stroke="#4A7DA7" stroke-linecap="round" stroke-miterlimit="10" stroke-width="2" x1="113.57" x2="55.75" y1="67.15" y2="105.95"/><line fill="none" stroke="#4A7DA7" stroke-linecap="round" stroke-miterlimit="10" stroke-width="2" x1="80" x2="46.43" y1="89.14" y2="67.15"/><line fill="none" stroke="#4A7DA7" stroke-linecap="round" stroke-miterlimit="10" stroke-width="2" x1="40" x2="37" y1="107" y2="107"/><line fill="none" stroke="#4A7DA7" stroke-linecap="round" stroke-miterlimit="10" stroke-width="2" x1="40" x2="34" y1="111" y2="111"/><line fill="none" stroke="#4A7DA7" stroke-linecap="round" stroke-miterlimit="10" stroke-width="2" x1="40" x2="31" y1="115" y2="115"/></svg>