<?xml version="1.0" ?><!DOCTYPE svg  PUBLIC '-//W3C//DTD SVG 1.1//EN'  'http://www.w3.org/Graphics/SVG/1.1/DTD/svg11.dtd'><svg enable-background="new 0 0 64 64" id="Layer_1" version="1.1" viewBox="0 0 64 64" xml:space="preserve" xmlns="http://www.w3.org/2000/svg" xmlns:xlink="http://www.w3.org/1999/xlink"><g><path d="M47.8,57.7H6c-2.8,0-5-2.3-5-5V19.1h51.8v33.6C52.8,55.5,50.6,57.7,47.8,57.7z" fill="#E3ECFF"/><path d="   M52.8,52.6L52.8,52.6c0,2.9-2.3,5.1-5,5.1H6.1c-2.8,0-5-2.3-5-5V19.1h51.8v5.2" fill="none" stroke="#2A3C65" stroke-linecap="round" stroke-linejoin="round" stroke-miterlimit="10" stroke-width="2"/><path d="M47.8,9H6c-2.8,0-5,2.3-5,5v5h51.8v-5C52.8,11.3,50.6,9,47.8,9z" fill="#02BEFF"/><path d="   M49.1,9.2c2.2,0.6,3.8,2.5,3.8,4.9v5H1v-5c0-2.8,2.3-5,5-5h2.3" fill="none" stroke="#2A3C65" stroke-linecap="round" stroke-linejoin="round" stroke-miterlimit="10" stroke-width="2"/><g><line fill="none" stroke="#2A3C65" stroke-linecap="round" stroke-linejoin="round" stroke-miterlimit="10" stroke-width="2" x1="8.3" x2="8.3" y1="11.8" y2="6.3"/><line fill="none" stroke="#2A3C65" stroke-linecap="round" stroke-linejoin="round" stroke-miterlimit="10" stroke-width="2" x1="15.8" x2="15.8" y1="11.8" y2="6.3"/><line fill="none" stroke="#2A3C65" stroke-linecap="round" stroke-linejoin="round" stroke-miterlimit="10" stroke-width="2" x1="23.2" x2="23.2" y1="11.8" y2="6.3"/><line fill="none" stroke="#2A3C65" stroke-linecap="round" stroke-linejoin="round" stroke-miterlimit="10" stroke-width="2" x1="30.6" x2="30.6" y1="11.8" y2="6.3"/><line fill="none" stroke="#2A3C65" stroke-linecap="round" stroke-linejoin="round" stroke-miterlimit="10" stroke-width="2" x1="38.1" x2="38.1" y1="11.8" y2="6.3"/><line fill="none" stroke="#2A3C65" stroke-linecap="round" stroke-linejoin="round" stroke-miterlimit="10" stroke-width="2" x1="45.5" x2="45.5" y1="11.8" y2="6.3"/></g><g><rect fill="#FFFFFF" height="5.1" stroke="#2A3C65" stroke-linecap="round" stroke-linejoin="round" stroke-miterlimit="10" stroke-width="2" width="5.5" x="7.8" y="26"/><rect fill="#FFFFFF" height="5.1" stroke="#2A3C65" stroke-linecap="round" stroke-linejoin="round" stroke-miterlimit="10" stroke-width="2" width="5.5" x="18.7" y="26"/><rect fill="#FFFFFF" height="5.1" stroke="#2A3C65" stroke-linecap="round" stroke-linejoin="round" stroke-miterlimit="10" stroke-width="2" width="5.5" x="29.6" y="26"/></g><g><rect fill="#FFFFFF" height="5.1" stroke="#2A3C65" stroke-linecap="round" stroke-linejoin="round" stroke-miterlimit="10" stroke-width="2" width="5.5" x="7.8" y="35.9"/><rect fill="#FFFFFF" height="5.1" stroke="#2A3C65" stroke-linecap="round" stroke-linejoin="round" stroke-miterlimit="10" stroke-width="2" width="5.5" x="18.7" y="35.9"/><rect fill="#FFFFFF" height="5.1" stroke="#2A3C65" stroke-linecap="round" stroke-linejoin="round" stroke-miterlimit="10" stroke-width="2" width="5.5" x="29.6" y="35.9"/></g><g><rect fill="#FFFFFF" height="5.1" stroke="#2A3C65" stroke-linecap="round" stroke-linejoin="round" stroke-miterlimit="10" stroke-width="2" width="5.5" x="7.8" y="45.8"/><rect fill="#FFFFFF" height="5.1" stroke="#2A3C65" stroke-linecap="round" stroke-linejoin="round" stroke-miterlimit="10" stroke-width="2" width="5.5" x="18.7" y="45.8"/><rect fill="#FFFFFF" height="5.1" stroke="#2A3C65" stroke-linecap="round" stroke-linejoin="round" stroke-miterlimit="10" stroke-width="2" width="5.5" x="29.6" y="45.8"/></g><circle cx="52.8" cy="38.4" fill="#FFFFFF" r="10.2" stroke="#2A3C65" stroke-linecap="round" stroke-linejoin="round" stroke-miterlimit="10" stroke-width="2"/><polyline fill="#FFFFFF" points="   48.2,39 50.9,41.7 57.4,35.2  " stroke="#2A3C65" stroke-linecap="round" stroke-linejoin="round" stroke-miterlimit="10" stroke-width="2"/><line fill="none" stroke="#2A3C65" stroke-linecap="round" stroke-linejoin="round" stroke-miterlimit="10" stroke-width="2" x1="15.8" x2="12.3" y1="9" y2="9"/><line fill="none" stroke="#2A3C65" stroke-linecap="round" stroke-linejoin="round" stroke-miterlimit="10" stroke-width="2" x1="23.2" x2="19.7" y1="9" y2="9"/><line fill="none" stroke="#2A3C65" stroke-linecap="round" stroke-linejoin="round" stroke-miterlimit="10" stroke-width="2" x1="30.3" x2="26.9" y1="9" y2="9"/><line fill="none" stroke="#2A3C65" stroke-linecap="round" stroke-linejoin="round" stroke-miterlimit="10" stroke-width="2" x1="38.1" x2="34.6" y1="9" y2="9"/><line fill="none" stroke="#2A3C65" stroke-linecap="round" stroke-linejoin="round" stroke-miterlimit="10" stroke-width="2" x1="45.5" x2="42.1" y1="9" y2="9"/></g></svg>