<svg viewBox="0 0 32 32" xml:space="preserve" xmlns="http://www.w3.org/2000/svg"><path clip-rule="evenodd" d="M30.001 23.817V28a2 2 0 0 1 0 4H2a2 2 0 0 1-2-2V2a2 2 0 0 1 2-2h20a2 2 0 0 1 2 2v26h4v-4.184A2.992 2.992 0 0 1 26 21c0-1.657 1.343-13 3-13s3 11.343 3 13a2.99 2.99 0 0 1-1.999 2.817zM20 27.201V4.8a.8.8 0 0 0-.8-.8H4.8c-.441 0-.8.359-.8.8v22.4a.8.8 0 0 0 .8.8H10v-3.2a.8.8 0 0 1 .8-.8h2.4a.8.8 0 0 1 .8.8V28h5.2c.443 0 .8-.358.8-.799zM14 18.8a.8.8 0 0 1 .8-.8h2.4a.8.8 0 0 1 .8.8v2.4a.8.8 0 0 1-.8.8h-2.4a.8.8 0 0 1-.8-.8v-2.4zm3.201-2.8h-2.4a.8.8 0 0 1-.8-.8v-2.4a.8.8 0 0 1 .8-.8h2.4a.8.8 0 0 1 .8.8v2.4a.8.8 0 0 1-.8.8zm0-6h-2.4a.8.8 0 0 1-.8-.8V6.8a.8.8 0 0 1 .8-.8h2.4c.442 0 .799.358.799.8v2.4c0 .443-.357.8-.799.8zm-8 12h-2.4a.8.8 0 0 1-.8-.8v-2.4a.8.8 0 0 1 .8-.8h2.4a.8.8 0 0 1 .8.8v2.4a.8.8 0 0 1-.8.8zm0-6h-2.4a.8.8 0 0 1-.8-.8v-2.4a.8.8 0 0 1 .8-.8h2.4a.8.8 0 0 1 .8.8v2.4a.8.8 0 0 1-.8.8zm0-6h-2.4A.8.8 0 0 1 6 9.201V6.8a.8.8 0 0 1 .801-.8h2.4a.8.8 0 0 1 .8.8v2.4a.8.8 0 0 1-.8.8z" fill="#56aaff" fill-rule="evenodd" class="fill-010101"></path></svg>