<?xml version="1.0" ?><svg style="enable-background:new 0 0 128 128;" version="1.1" viewBox="0 0 128 128" xml:space="preserve" xmlns="http://www.w3.org/2000/svg" xmlns:xlink="http://www.w3.org/1999/xlink"><style type="text/css">
	.st0{display:none;}
	.st1{fill:#4D4D4D;}
	.st2{fill:none;}
	.st3{fill:none;stroke:#4D4D4D;stroke-width:4;stroke-miterlimit:10;}
	.st4{fill:#ED8B22;}
</style><g class="st0" id="Layer_1"/><g id="Icon"><g><g><path class="st3" d="M34.13,44.25l-0.01-8.39c0-1.3,0.49-2.56,1.38-3.48l21.31-22.19c0.88-0.92,2.08-1.44,3.33-1.44h52.79     c3.55,0,6.41,3.02,6.36,6.72l-0.24,17.68l-0.04,49.13v27.56c0,2.71-2.11,4.91-4.72,4.91H38.92c-2.61,0-4.72-2.2-4.72-4.91     l-0.03-32.59"/><path class="st3" d="M60.706,8.75v22.308c0,2.591-1.897,4.692-4.237,4.692H34.706"/></g><polygon class="st4" points="95.1,99.33 85.21,99.33 85.21,84.97 68.21,84.97 68.21,99.33 58.31,99.33 76.71,121.25   "/></g><path class="st1" d="M73.71,43.5h-62c-2.21,0-4,1.79-4,4v26c0,2.21,1.79,4,4,4h62c2.21,0,4-1.79,4-4v-26   C77.71,45.29,75.92,43.5,73.71,43.5z M34.688,66.026c-0.239,0.688-0.616,1.364-1.129,2.027c-0.514,0.663-1.169,1.201-1.967,1.615   s-1.728,0.621-2.788,0.621c-0.806,0-1.537-0.094-2.196-0.279s-1.257-0.475-1.795-0.868c-0.537-0.393-1.031-0.909-1.482-1.552   c-0.402-0.583-0.746-1.235-1.03-1.957c-0.284-0.723-0.498-1.493-0.64-2.313c-0.143-0.819-0.213-1.689-0.213-2.61   c0-1.495,0.178-2.833,0.535-4.017c0.357-1.182,0.869-2.193,1.535-3.034c0.666-0.84,1.446-1.48,2.341-1.919   c0.896-0.439,1.849-0.659,2.861-0.659c1.235,0,2.335,0.3,3.299,0.899s1.703,1.341,2.216,2.224c0.514,0.883,0.771,1.717,0.771,2.502   c0,0.432-0.125,0.812-0.375,1.141c-0.249,0.329-0.551,0.494-0.905,0.494c-0.396,0-0.691-0.114-0.89-0.342   c-0.197-0.229-0.418-0.621-0.66-1.179c-0.402-0.92-0.876-1.608-1.421-2.065c-0.544-0.456-1.216-0.684-2.013-0.684   c-1.27,0-2.281,0.587-3.033,1.761c-0.753,1.175-1.129,2.843-1.129,5.005c0,1.444,0.166,2.646,0.499,3.604   c0.333,0.959,0.805,1.675,1.415,2.147c0.61,0.474,1.325,0.71,2.144,0.71c0.888,0,1.639-0.269,2.253-0.805s1.077-1.324,1.389-2.363   c0.132-0.489,0.295-0.889,0.489-1.197c0.194-0.308,0.507-0.462,0.937-0.462c0.367,0,0.684,0.156,0.947,0.469   c0.263,0.313,0.396,0.701,0.396,1.165C35.047,64.698,34.927,65.338,34.688,66.026z M48.703,67.426   c-0.475,0.896-1.17,1.597-2.086,2.104s-2.001,0.761-3.257,0.761c-1.506,0-2.747-0.347-3.726-1.039   c-0.693-0.499-1.257-1.164-1.69-1.996s-0.65-1.641-0.65-2.426c0-0.456,0.13-0.847,0.391-1.172c0.26-0.325,0.591-0.488,0.993-0.488   c0.326,0,0.602,0.127,0.827,0.38c0.226,0.254,0.418,0.63,0.578,1.128c0.193,0.592,0.403,1.086,0.629,1.482   c0.226,0.397,0.543,0.725,0.952,0.982c0.409,0.257,0.947,0.386,1.613,0.386c0.915,0,1.659-0.26,2.231-0.779   s0.858-1.167,0.858-1.944c0-0.616-0.154-1.117-0.463-1.502c-0.309-0.384-0.707-0.678-1.196-0.88   c-0.489-0.203-1.144-0.418-1.962-0.646c-1.096-0.313-2.013-0.678-2.752-1.096c-0.738-0.418-1.325-0.988-1.759-1.711   c-0.434-0.722-0.65-1.619-0.65-2.692c0-1.021,0.229-1.93,0.688-2.724s1.12-1.404,1.987-1.831c0.867-0.426,1.887-0.64,3.059-0.64   c0.937,0,1.747,0.142,2.43,0.425c0.684,0.283,1.25,0.658,1.701,1.127s0.78,0.961,0.989,1.477c0.208,0.515,0.312,1.018,0.312,1.508   c0,0.447-0.13,0.851-0.39,1.21c-0.261,0.358-0.585,0.538-0.974,0.538c-0.354,0-0.622-0.107-0.806-0.323   c-0.185-0.215-0.384-0.567-0.599-1.058c-0.277-0.701-0.61-1.248-0.999-1.641s-1.013-0.589-1.873-0.589   c-0.798,0-1.44,0.213-1.93,0.64s-0.733,0.939-0.733,1.539c0,0.372,0.083,0.692,0.249,0.963c0.167,0.271,0.396,0.503,0.688,0.697   c0.291,0.194,0.586,0.346,0.884,0.456c0.299,0.109,0.791,0.271,1.478,0.481c0.86,0.245,1.639,0.515,2.336,0.811   s1.29,0.654,1.779,1.077c0.489,0.422,0.871,0.956,1.145,1.603c0.274,0.646,0.411,1.438,0.411,2.376   C49.416,65.521,49.179,66.531,48.703,67.426z M64.316,53.369c-0.042,0.215-0.094,0.427-0.156,0.634s-0.125,0.42-0.188,0.64   L60.279,66.78c-0.132,0.465-0.264,0.905-0.396,1.324c-0.132,0.418-0.285,0.785-0.458,1.102c-0.174,0.317-0.404,0.577-0.692,0.779   c-0.287,0.203-0.64,0.305-1.056,0.305s-0.769-0.1-1.056-0.298c-0.288-0.198-0.521-0.461-0.697-0.786s-0.332-0.694-0.464-1.108   s-0.264-0.853-0.395-1.317l-3.632-12.037c-0.063-0.219-0.127-0.435-0.192-0.646c-0.066-0.211-0.121-0.439-0.167-0.685   c-0.045-0.245-0.067-0.451-0.067-0.621c0-0.431,0.143-0.823,0.427-1.178s0.642-0.532,1.072-0.532c0.526,0,0.899,0.196,1.118,0.589   s0.442,1.021,0.671,1.882l3.455,12.454l3.465-12.543c0.18-0.659,0.315-1.117,0.405-1.375c0.09-0.257,0.239-0.489,0.447-0.696   s0.493-0.311,0.854-0.311c0.264,0,0.508,0.08,0.733,0.241c0.226,0.16,0.402,0.373,0.531,0.64c0.128,0.266,0.192,0.534,0.192,0.805   C64.379,52.953,64.357,53.153,64.316,53.369z"/></g></svg>