<?xml version="1.0" ?><!DOCTYPE svg  PUBLIC '-//W3C//DTD SVG 1.1//EN'  'http://www.w3.org/Graphics/SVG/1.1/DTD/svg11.dtd'><svg enable-background="new 0 0 32 32" height="32px" id="Layer_1" version="1.1" viewBox="0 0 32 32" width="32px" xml:space="preserve" xmlns="http://www.w3.org/2000/svg" xmlns:xlink="http://www.w3.org/1999/xlink"><g><path d="M29,2H16v28h13c1.7,0,3-1.3,3-3V5C32,3.3,30.7,2,29,2z" fill="#54AAD0"/><path d="M3,2C1.3,2,0,3.3,0,5v22c0,1.7,1.3,3,3,3h13V2H3z" fill="#54AAD0"/><rect fill="#D0D3D6" height="5" width="7" x="2" y="8"/><rect fill="#D0D3D6" height="5" width="6" x="10" y="8"/><rect fill="#D0D3D6" height="5" width="6" x="17" y="8"/><rect fill="#D0D3D6" height="5" width="6" x="24" y="8"/><rect fill="#EEEDED" height="4" width="7" x="2" y="14"/><rect fill="#EEEDED" height="4" width="6" x="10" y="14"/><rect fill="#EEEDED" height="4" width="6" x="17" y="14"/><rect fill="#EEEDED" height="4" width="6" x="24" y="14"/><rect fill="#EEEDED" height="4" width="7" x="2" y="19"/><rect fill="#EEEDED" height="4" width="6" x="10" y="19"/><rect fill="#EEEDED" height="4" width="6" x="17" y="19"/><rect fill="#EEEDED" height="4" width="6" x="24" y="19"/><rect fill="#EEEDED" height="4" width="7" x="2" y="24"/><rect fill="#EEEDED" height="4" width="6" x="10" y="24"/><rect fill="#EEEDED" height="4" width="6" x="17" y="24"/><rect fill="#EEEDED" height="4" width="6" x="24" y="24"/></g><g><path d="M24,16c-4.4,0-8,3.6-8,8s3.6,8,8,8s8-3.6,8-8S28.4,16,24,16z" fill="#1FB79A"/><polygon fill="#EEEEEE" points="23,24 23,26 20,26 24,30 28,26 25,26 25,24 25,18 23,18  "/></g></svg>