<?xml version="1.0" ?><!DOCTYPE svg  PUBLIC '-//W3C//DTD SVG 1.1//EN'  'http://www.w3.org/Graphics/SVG/1.1/DTD/svg11.dtd'><svg enable-background="new 0 0 32 32" height="32px" id="Layer_1" version="1.1" viewBox="0 0 32 32" width="32px" xml:space="preserve" xmlns="http://www.w3.org/2000/svg" xmlns:xlink="http://www.w3.org/1999/xlink"><g><path d="M29,2H16v28h13c1.7,0,3-1.3,3-3V5C32,3.3,30.7,2,29,2z" fill="#3E8DB8"/><path d="M3,2C1.3,2,0,3.3,0,5v22c0,1.7,1.3,3,3,3h13V2H3z" fill="#54AAD0"/><rect fill="#D0D3D6" height="5" width="7" x="2" y="8"/><rect fill="#D0D3D6" height="5" width="6" x="10" y="8"/><rect fill="#D0D3D6" height="5" width="6" x="17" y="8"/><rect fill="#D0D3D6" height="5" width="6" x="24" y="8"/><rect fill="#EEEDED" height="4" width="7" x="2" y="14"/><rect fill="#EEEDED" height="4" width="6" x="10" y="14"/><rect fill="#EEEDED" height="4" width="6" x="17" y="14"/><rect fill="#EEEDED" height="4" width="6" x="24" y="14"/><rect fill="#EEEDED" height="4" width="7" x="2" y="19"/><rect fill="#EEEDED" height="4" width="6" x="10" y="19"/><rect fill="#EEEDED" height="4" width="6" x="17" y="19"/><rect fill="#EEEDED" height="4" width="6" x="24" y="19"/><rect fill="#EEEDED" height="4" width="7" x="2" y="24"/><rect fill="#EEEDED" height="4" width="6" x="10" y="24"/><rect fill="#EEEDED" height="4" width="6" x="17" y="24"/><rect fill="#EEEDED" height="4" width="6" x="24" y="24"/></g><g><path d="M24,16v16c4.4,0,8-3.6,8-8S28.4,16,24,16z" fill="#00A683"/><path d="M16,24c0,4.4,3.6,8,8,8V16C19.6,16,16,19.6,16,24z" fill="#1FB79A"/><polygon fill="#EEEEEE" points="20,22 23,22 23,30 24,30 24,18  "/><polygon fill="#D0D4D7" points="24,18 24,30 25,30 25,22 28,22  "/></g></svg>