<?xml version="1.0" ?><svg data-name="Layer 1" id="Layer_1" viewBox="0 0 128 128" xmlns="http://www.w3.org/2000/svg"><defs><style>.cls-1{fill:#3b4652;}.cls-2{fill:#2b78c2;}</style></defs><polygon class="cls-1" points="4.123 104.772 25.361 117.028 25.361 92.505 4.123 80.249 4.123 104.772"/><polygon class="cls-1" points="53.062 80.249 31.823 92.505 31.823 117.028 53.062 104.772 53.062 80.249"/><polygon class="cls-1" points="28.592 62.392 7.354 74.648 28.592 86.915 49.831 74.648 28.592 62.392"/><polygon class="cls-1" points="74.938 104.772 96.177 117.028 96.177 92.505 74.938 80.249 74.938 104.772"/><polygon class="cls-1" points="102.639 92.505 102.639 117.028 123.877 104.772 123.877 80.249 102.639 92.505"/><polygon class="cls-1" points="99.408 62.392 78.169 74.648 99.408 86.915 120.646 74.648 99.408 62.392"/><polygon class="cls-1" points="60.769 31.29 39.531 19.034 39.531 43.557 60.769 55.814 60.769 31.29"/><polygon class="cls-1" points="67.231 55.814 88.469 43.557 88.469 19.034 67.231 31.29 67.231 55.814"/><polygon class="cls-1" points="85.238 13.434 64 1.177 42.762 13.434 64 25.701 85.238 13.434"/><path class="cls-2" d="M22.31838,45.87307l8.921-5.15043V31.33907L16.22358,40.00844a4.0635,4.0635,0,0,0-2.03165,3.519V61.20207l8.12645-4.68963Z"/><path class="cls-2" d="M105.68162,56.51244l8.12645,4.68963V43.52744a4.0635,4.0635,0,0,0-2.03165-3.519L96.76059,31.33907v9.38357l8.921,5.15043Z"/><path class="cls-2" d="M64,118.06769l-8.62977-4.98232-8.12845,4.69076,14.7267,8.50238a4.06384,4.06384,0,0,0,4.063,0l14.7267-8.50238-8.12845-4.69076Z"/></svg>