<?xml version="1.0" encoding="UTF-8"?>
<!DOCTYPE svg PUBLIC "-//W3C//DTD SVG 1.1//EN" "http://www.w3.org/Graphics/SVG/1.1/DTD/svg11.dtd">
<svg xmlns="http://www.w3.org/2000/svg" version="1.1" width="512px" height="512px" style="shape-rendering:geometricPrecision; text-rendering:geometricPrecision; image-rendering:optimizeQuality; fill-rule:evenodd; clip-rule:evenodd" xmlns:xlink="http://www.w3.org/1999/xlink">
<g><path style="opacity:0.987" fill="#010101" d="M 68.5,-0.5 C 146.167,-0.5 223.833,-0.5 301.5,-0.5C 361.698,7.84065 408.198,37.5073 441,88.5C 453.364,109.592 461.364,132.258 465,156.5C 466.115,193.479 466.948,230.479 467.5,267.5C 491.988,287.981 506.655,313.981 511.5,345.5C 511.5,356.167 511.5,366.833 511.5,377.5C 505.919,411.993 489.085,439.66 461,460.5C 448.626,488.586 427.459,505.586 397.5,511.5C 287.833,511.5 178.167,511.5 68.5,511.5C 30.9531,503.62 7.95308,480.953 -0.5,443.5C -0.5,318.167 -0.5,192.833 -0.5,67.5C 7.95308,30.0468 30.9531,7.3801 68.5,-0.5 Z"/></g>
<g><path style="opacity:1" fill="#d6def9" d="M 129.5,14.5 C 119.001,19.9935 110.334,27.6602 103.5,37.5C 64.4712,46.6984 44.9712,71.3651 45,111.5C 48.6333,139.145 63.1333,158.478 88.5,169.5C 88.5,213.167 88.5,256.833 88.5,300.5C 154.5,300.5 220.5,300.5 286.5,300.5C 213.668,301.333 140.668,301.833 67.5,302C 63.5,306.333 63.5,310.667 67.5,315C 138.001,315.167 208.335,315.667 278.5,316.5C 215.167,316.5 151.833,316.5 88.5,316.5C 88.5,329.5 88.5,342.5 88.5,355.5C 148.833,355.5 209.167,355.5 269.5,355.5C 202.335,356.333 135.001,356.833 67.5,357C 63.5,361.333 63.5,365.667 67.5,370C 135.335,370.167 203.001,370.667 270.5,371.5C 209.833,371.5 149.167,371.5 88.5,371.5C 88.5,385.167 88.5,398.833 88.5,412.5C 81.825,412.334 75.1583,412.5 68.5,413C 63.1881,417.761 63.1881,422.428 68.5,427C 78.828,427.5 89.1613,427.666 99.5,427.5C 96.3752,428.479 93.0419,428.813 89.5,428.5C 89.8998,459.32 103.567,481.986 130.5,496.5C 110.497,496.667 90.4972,496.5 70.5,496C 38.635,489.136 20.135,469.636 15,437.5C 14.3333,315.167 14.3333,192.833 15,70.5C 21.4731,40.0269 39.9731,21.5269 70.5,15C 90.1638,14.5 109.831,14.3334 129.5,14.5 Z"/></g>
<g><path style="opacity:1" fill="#e8eefe" d="M 129.5,14.5 C 182.5,14.5 235.5,14.5 288.5,14.5C 288.333,51.5015 288.5,88.5015 289,125.5C 291.633,145.132 302.467,157.632 321.5,163C 340.5,163.667 359.5,163.667 378.5,163C 380.644,162.208 381.977,160.708 382.5,158.5C 388.167,155.833 393.833,155.833 399.5,158.5C 400.023,160.708 401.356,162.208 403.5,163C 419.163,163.5 434.83,163.667 450.5,163.5C 450.5,165.5 450.5,167.5 450.5,169.5C 450.831,198.338 450.498,227.005 449.5,255.5C 393.465,229.309 343.631,237.975 300,281.5C 294.999,287.511 290.499,293.844 286.5,300.5C 220.5,300.5 154.5,300.5 88.5,300.5C 88.5,256.833 88.5,213.167 88.5,169.5C 121.25,178.941 148.083,170.274 169,143.5C 188.168,109.708 183.668,79.5418 155.5,53C 140.091,41.6444 122.758,36.4778 103.5,37.5C 110.334,27.6602 119.001,19.9935 129.5,14.5 Z"/></g>
<g><path style="opacity:1" fill="#d9e1fd" d="M 399.5,158.5 C 393.833,155.833 388.167,155.833 382.5,158.5C 383.542,153.867 381.875,150.701 377.5,149C 359.5,148.667 341.5,148.333 323.5,148C 312.711,144.277 306.211,136.777 304,125.5C 303.5,89.1682 303.333,52.8349 303.5,16.5C 359.35,24.157 401.516,52.157 430,100.5C 438.524,115.577 444.357,131.577 447.5,148.5C 433.163,148.333 418.829,148.5 404.5,149C 400.125,150.701 398.458,153.867 399.5,158.5 Z"/></g>
<g><path style="opacity:1" fill="#040405" d="M 103.5,37.5 C 122.758,36.4778 140.091,41.6444 155.5,53C 183.668,79.5418 188.168,109.708 169,143.5C 148.083,170.274 121.25,178.941 88.5,169.5C 63.1333,158.478 48.6333,139.145 45,111.5C 44.9712,71.3651 64.4712,46.6984 103.5,37.5 Z"/></g>
<g><path style="opacity:1" fill="#e6ebfb" d="M 88.5,152.5 C 88.1696,132.66 88.5029,112.993 89.5,93.5C 96.926,108.687 104.093,124.02 111,139.5C 117.943,144.446 122.443,142.779 124.5,134.5C 121.787,127.405 118.787,120.405 115.5,113.5C 119.471,110.51 123.804,108.01 128.5,106C 133.375,99.3727 131.875,94.8727 124,92.5C 119.122,94.3547 114.288,96.3547 109.5,98.5C 107.012,95.5342 105.012,92.2009 103.5,88.5C 109.025,85.2628 114.525,81.9295 120,78.5C 122.729,69.2328 119.229,65.7328 109.5,68C 103.381,71.3942 97.0481,74.2275 90.5,76.5C 89.3913,69.6726 90.3913,63.006 93.5,56.5C 111.997,49.8805 129.33,52.3805 145.5,64C 168.855,86.4638 171.689,111.297 154,138.5C 135.475,158.835 113.642,163.501 88.5,152.5 Z"/></g>
<g><path style="opacity:1" fill="#d7dffa" d="M 93.5,56.5 C 90.3913,63.006 89.3913,69.6726 90.5,76.5C 87.7635,78.1335 86.4302,80.6335 86.5,84C 86.8056,87.4154 87.8056,90.5821 89.5,93.5C 88.5029,112.993 88.1696,132.66 88.5,152.5C 70.2533,142.229 60.5866,126.562 59.5,105.5C 60.7192,82.0371 72.0525,65.7037 93.5,56.5 Z"/></g>
<g><path style="opacity:1" fill="#040505" d="M 89.5,93.5 C 87.8056,90.5821 86.8056,87.4154 86.5,84C 86.4302,80.6335 87.7635,78.1335 90.5,76.5C 97.0481,74.2275 103.381,71.3942 109.5,68C 119.229,65.7328 122.729,69.2328 120,78.5C 114.525,81.9295 109.025,85.2628 103.5,88.5C 105.012,92.2009 107.012,95.5342 109.5,98.5C 114.288,96.3547 119.122,94.3547 124,92.5C 131.875,94.8727 133.375,99.3727 128.5,106C 123.804,108.01 119.471,110.51 115.5,113.5C 118.787,120.405 121.787,127.405 124.5,134.5C 122.443,142.779 117.943,144.446 111,139.5C 104.093,124.02 96.926,108.687 89.5,93.5 Z"/></g>
<g><path style="opacity:1" fill="#c0c5d3" d="M 450.5,169.5 C 451.83,198.336 451.83,227.336 450.5,256.5C 449.893,256.376 449.56,256.043 449.5,255.5C 450.498,227.005 450.831,198.338 450.5,169.5 Z"/></g>
<g><path style="opacity:1" fill="#070607" d="M 175.5,213.5 C 163.999,216.331 153.999,213.664 145.5,205.5C 141.178,200.948 141.511,196.781 146.5,193C 151.528,191.452 155.528,192.785 158.5,197C 166.818,201.044 174.152,199.711 180.5,193C 184.666,190.749 188.166,191.583 191,195.5C 192.361,202.277 189.861,207.11 183.5,210C 180.924,211.456 178.258,212.623 175.5,213.5 Z"/></g>
<g><path style="opacity:1" fill="#060506" d="M 318.5,205.5 C 309.642,213.756 299.309,216.422 287.5,213.5C 281.632,211.154 276.798,207.488 273,202.5C 271.471,195.369 274.304,191.869 281.5,192C 291.468,201.932 301.468,201.932 311.5,192C 320.607,192.768 322.941,197.268 318.5,205.5 Z"/></g>
<g><path style="opacity:1" fill="#fea1ac" d="M 145.5,205.5 C 153.999,213.664 163.999,216.331 175.5,213.5C 185.567,227.767 182.9,239.267 167.5,248C 151.296,254.927 137.462,251.76 126,238.5C 120.485,220.496 126.985,209.496 145.5,205.5 Z"/></g>
<g><path style="opacity:1" fill="#fea1ac" d="M 318.5,205.5 C 337.986,209.779 344.152,221.112 337,239.5C 323.859,252.728 309.026,254.895 292.5,246C 281.294,236.508 279.627,225.674 287.5,213.5C 299.309,216.422 309.642,213.756 318.5,205.5 Z"/></g>
<g><path style="opacity:1" fill="#040505" d="M 225.5,215.5 C 237.161,214.331 246.994,217.997 255,226.5C 256.833,235.333 253.333,238.833 244.5,237C 236.167,228.333 227.833,228.333 219.5,237C 210.667,238.833 207.167,235.333 209,226.5C 213.688,221.421 219.188,217.754 225.5,215.5 Z"/></g>
<g><path style="opacity:1" fill="#fa5b6e" d="M 410.5,257.5 C 396.758,265.39 384.258,275.057 373,286.5C 370.162,291.248 366.662,295.248 362.5,298.5C 337.197,297.302 325.697,309.302 328,334.5C 329.139,338.112 330.806,341.446 333,344.5C 338.682,350.015 344.182,355.681 349.5,361.5C 342.443,368.388 335.943,375.721 330,383.5C 324.663,397.041 327.163,408.874 337.5,419C 345.61,425.11 354.61,426.943 364.5,424.5C 369.518,432.988 375.852,440.488 383.5,447C 392.384,453.936 401.718,460.102 411.5,465.5C 356.814,472.744 317.314,451.744 293,402.5C 276.09,356.311 285.257,316.145 320.5,282C 346.655,259.895 376.655,251.729 410.5,257.5 Z"/></g>
<g><path style="opacity:1" fill="#fd8896" d="M 410.5,257.5 C 455.852,268.686 484.019,297.019 495,342.5C 501.099,397.486 479.266,436.653 429.5,460C 423.573,462.143 417.573,463.976 411.5,465.5C 401.718,460.102 392.384,453.936 383.5,447C 375.852,440.488 369.518,432.988 364.5,424.5C 366.942,422.774 369.609,421.274 372.5,420C 378.348,413.985 384.348,408.152 390.5,402.5C 396.319,407.818 401.985,413.318 407.5,419C 422.857,428.98 436.69,427.147 449,413.5C 456.638,401.552 456.305,389.886 448,378.5C 442.318,372.985 436.818,367.319 431.5,361.5C 437.152,355.348 442.985,349.348 449,343.5C 458.542,327.07 455.708,313.237 440.5,302C 431.287,297.807 421.953,297.474 412.5,301C 404.721,306.943 397.388,313.443 390.5,320.5C 384.681,315.182 379.015,309.682 373.5,304C 369.983,301.674 366.317,299.84 362.5,298.5C 366.662,295.248 370.162,291.248 373,286.5C 384.258,275.057 396.758,265.39 410.5,257.5 Z"/></g>
<g><path style="opacity:1" fill="#050202" d="M 362.5,298.5 C 366.317,299.84 369.983,301.674 373.5,304C 379.015,309.682 384.681,315.182 390.5,320.5C 397.388,313.443 404.721,306.943 412.5,301C 421.953,297.474 431.287,297.807 440.5,302C 455.708,313.237 458.542,327.07 449,343.5C 442.985,349.348 437.152,355.348 431.5,361.5C 436.818,367.319 442.318,372.985 448,378.5C 456.305,389.886 456.638,401.552 449,413.5C 436.69,427.147 422.857,428.98 407.5,419C 401.985,413.318 396.319,407.818 390.5,402.5C 384.348,408.152 378.348,413.985 372.5,420C 369.609,421.274 366.942,422.774 364.5,424.5C 354.61,426.943 345.61,425.11 337.5,419C 327.163,408.874 324.663,397.041 330,383.5C 335.943,375.721 342.443,368.388 349.5,361.5C 344.182,355.681 338.682,350.015 333,344.5C 330.806,341.446 329.139,338.112 328,334.5C 325.697,309.302 337.197,297.302 362.5,298.5 Z"/></g>
<g><path style="opacity:1" fill="#f2324b" d="M 350.5,313.5 C 354.182,313.335 357.848,313.501 361.5,314C 370.137,321.636 378.47,329.636 386.5,338C 389.167,338.667 391.833,338.667 394.5,338C 402.566,329.264 411.233,321.264 420.5,314C 436.437,312.595 441.937,319.428 437,334.5C 429.667,341.833 422.333,349.167 415,356.5C 413,359.833 413,363.167 415,366.5C 423.736,374.566 431.736,383.233 439,392.5C 439.495,406.341 432.995,411.841 419.5,409C 410.863,401.364 402.53,393.364 394.5,385C 391.366,384.21 388.366,384.543 385.5,386C 377.803,394.031 369.803,401.698 361.5,409C 347.335,411.839 341.169,406.005 343,391.5C 350.264,382.233 358.264,373.566 367,365.5C 369,362.833 369,360.167 367,357.5C 358.264,349.434 350.264,340.767 343,331.5C 340.856,323.465 343.356,317.465 350.5,313.5 Z"/></g>
<g><path style="opacity:1" fill="#e8eefe" d="M 278.5,316.5 C 273.425,329.125 270.425,342.125 269.5,355.5C 209.167,355.5 148.833,355.5 88.5,355.5C 88.5,342.5 88.5,329.5 88.5,316.5C 151.833,316.5 215.167,316.5 278.5,316.5 Z"/></g>
<g><path style="opacity:1" fill="#e8eefe" d="M 270.5,371.5 C 278.11,428.616 309.777,464.783 365.5,480C 388.375,484.665 410.708,482.832 432.5,474.5C 432.833,474.667 433.167,474.833 433.5,475C 422.952,486.442 409.952,493.442 394.5,496C 306.501,496.5 218.501,496.667 130.5,496.5C 103.567,481.986 89.8998,459.32 89.5,428.5C 93.0419,428.813 96.3752,428.479 99.5,427.5C 104.93,426.31 107.097,422.977 106,417.5C 104.773,415.274 102.939,413.774 100.5,413C 96.5138,412.501 92.5138,412.334 88.5,412.5C 88.5,398.833 88.5,385.167 88.5,371.5C 149.167,371.5 209.833,371.5 270.5,371.5 Z"/></g>
<g><path style="opacity:1" fill="#070707" d="M 88.5,412.5 C 92.5138,412.334 96.5138,412.501 100.5,413C 102.939,413.774 104.773,415.274 106,417.5C 107.097,422.977 104.93,426.31 99.5,427.5C 89.1613,427.666 78.828,427.5 68.5,427C 63.1881,422.428 63.1881,417.761 68.5,413C 75.1583,412.5 81.825,412.334 88.5,412.5 Z"/></g>
<g><path style="opacity:1" fill="#050506" d="M 128.5,412.5 C 165.168,412.333 201.835,412.5 238.5,413C 244.759,417.167 245.092,421.833 239.5,427C 202.167,427.667 164.833,427.667 127.5,427C 122.003,421.683 122.336,416.85 128.5,412.5 Z"/></g>
</svg>
