<?xml version="1.0" ?><svg xmlns:inkscape="http://www.inkscape.org/namespaces/inkscape" xmlns:sodipodi="http://sodipodi.sourceforge.net/DTD/sodipodi-0.dtd" xmlns="http://www.w3.org/2000/svg" xmlns:svg="http://www.w3.org/2000/svg" xmlns:rdf="http://www.w3.org/1999/02/22-rdf-syntax-ns#" xmlns:cc="http://creativecommons.org/ns#" xmlns:dc="http://purl.org/dc/elements/1.1/" width="96" height="96" viewBox="0 0 25.399999 25.400001" version="1.1" id="svg851"><defs id="defs845"/><g id="layer1" transform="translate(0,-271.59999)"><path id="path888" style="color:#000000;display:inline;fill:#000000;fill-rule:evenodd;stroke-width:1;stroke-linecap:round;stroke-linejoin:round;-inkscape-stroke:none;paint-order:markers fill stroke" d="m 11.14764,272.65832 c -0.423249,0 -0.77618,0.35294 -0.77618,0.77618 v 4.65605 H 9.5947633 c -0.42325,0 -0.7761801,0.35345 -0.7761801,0.7767 v 3.10523 H 7.8336305 c -0.136406,-0.23478 -0.332649,-0.43097 -0.5674072,-0.5674 v -1.37356 c 0,-0.63824 -0.5250016,-1.16427 -1.1632366,-1.16427 -0.638233,0 -1.1642699,0.52603 -1.1642699,1.16427 v 1.16427 h -0.77618 c -0.5714738,0 -1.0740594,0.31353 -1.3435873,0.77669 H 2.6096599 c -0.8532197,0 -1.5513264,0.69759 -1.5513264,1.55081 v 10.86549 c 0,0.85322 0.6981067,1.55288 1.5513264,1.55288 H 22.789306 c 0.853221,0 1.552361,-0.69966 1.552361,-1.55288 v -10.86549 c 0,-0.58134 -0.3247,-1.08995 -0.801502,-1.35547 0.01668,-0.0625 0.02532,-0.12813 0.02532,-0.19534 v -3.10523 c 0,-0.42325 -0.352929,-0.7767 -0.77618,-0.7767 h -0.776179 v -4.65605 c 0,-0.42325 -0.353439,-0.77618 -0.776697,-0.77618 z m 1.16427,1.55236 h 1.551326 a 0.3880544,0.3880544 0 0 1 0.38809,0.38809 0.3880544,0.3880544 0 0 1 -0.38809,0.38809 H 12.31191 a 0.3880544,0.3880544 0 0 1 -0.38809,-0.38809 0.3880544,0.3880544 0 0 1 0.38809,-0.38809 z m 0,1.55288 h 1.551326 a 0.3880544,0.3880544 0 0 1 0.38809,0.38809 0.3880544,0.3880544 0 0 1 -0.38809,0.38654 H 12.31191 a 0.3880544,0.3880544 0 0 1 -0.38809,-0.38654 0.3880544,0.3880544 0 0 1 0.38809,-0.38809 z m 0,1.55081 h 1.163237 1.94045 a 0.3880544,0.3880544 0 0 1 0.388606,0.38809 0.3880544,0.3880544 0 0 1 -0.388606,0.38809 h -1.94045 -1.163237 a 0.3880544,0.3880544 0 0 1 -0.38809,-0.38809 0.3880544,0.3880544 0 0 1 0.38809,-0.38809 z m 4.656563,0 h 3.103687 a 0.3880544,0.3880544 0 0 1 0.38809,0.38809 0.3880544,0.3880544 0 0 1 -0.38809,0.38809 h -3.103687 a 0.3880544,0.3880544 0 0 1 -0.38809,-0.38809 0.3880544,0.3880544 0 0 1 0.38809,-0.38809 z m -7.3737097,1.55288 H 10.37146 v 3.10523 H 9.5947633 Z m 2.7171467,0 h 1.551326 a 0.3880544,0.3880544 0 0 1 0.38809,0.38809 0.3880544,0.3880544 0 0 1 -0.38809,0.38809 H 12.31191 a 0.3880544,0.3880544 0 0 1 -0.38809,-0.38809 0.3880544,0.3880544 0 0 1 0.38809,-0.38809 z m 3.103687,0 h 4.656563 a 0.3880544,0.3880544 0 0 1 0.38809,0.38809 0.3880544,0.3880544 0 0 1 -0.38809,0.38809 h -4.656563 a 0.3880544,0.3880544 0 0 1 -0.388091,-0.38809 0.3880544,0.3880544 0 0 1 0.388091,-0.38809 z m 6.59753,0 h 0.776179 v 3.10523 h -0.776179 z m -15.9204755,0.77618 c 0.00344,-8e-5 0.00687,0 0.010335,0 0.2216886,0 0.3880901,0.16639 0.3880901,0.38809 v 1.16427 H 5.7148961 v -1.16427 c 0,-0.21824 0.1612551,-0.38299 0.3777554,-0.38809 z m 6.2192585,0.77618 h 1.163237 1.94045 a 0.3880544,0.3880544 0 0 1 0.388606,0.38809 0.3880544,0.3880544 0 0 1 -0.388606,0.38809 h -1.94045 -1.163237 a 0.3880544,0.3880544 0 0 1 -0.38809,-0.38809 0.3880544,0.3880544 0 0 1 0.38809,-0.38809 z m 4.656563,0 h 3.103687 a 0.3880544,0.3880544 0 0 1 0.38809,0.38809 0.3880544,0.3880544 0 0 1 -0.38809,0.38809 h -3.103687 a 0.3880544,0.3880544 0 0 1 -0.38809,-0.38809 0.3880544,0.3880544 0 0 1 0.38809,-0.38809 z m -14.3588131,2.3275 v 10.09034 c 0,0.85322 0.6996591,1.55133 1.5528769,1.55133 h 2.3285399 c 0.8532199,0 1.5513264,-0.69811 1.5513264,-1.55133 V 282.74711 H 22.789306 c 0.436685,0 0.77618,0.33949 0.77618,0.77618 v 10.86549 c 0,0.43669 -0.339495,0.77618 -0.77618,0.77618 H 2.6096599 c -0.4366846,0 -0.776182,-0.33949 -0.7761799,-0.77618 v -10.86549 c 0,-0.43669 0.3394953,-0.77618 0.7761799,-0.77618 z m 6.9851034,0.77618 c -0.42325,0 -0.7761801,0.35343 -0.7761801,0.7767 v 1.55236 c 0,0.42327 0.3529301,0.77618 0.7761801,0.77618 h 8.5379797 c 0.423252,0 0.775147,-0.35291 0.775147,-0.77618 v -1.55236 c 0,-0.42326 -0.351895,-0.7767 -0.775147,-0.7767 z m 10.8665197,3.49333 a 0.38809321,0.38809321 0 0 0 -0.274402,0.11369 l -1.940966,1.94045 a 0.38809321,0.38809321 0 0 0 0.274918,0.66146 h 3.880384 a 0.38809321,0.38809321 0 0 0 0.273368,-0.66146 l -1.9389,-1.94045 a 0.38809321,0.38809321 0 0 0 -0.274402,-0.11369 z M 9.98337,287.40523 c -0.6383512,0 -1.1647868,0.52437 -1.1647868,1.16272 -8e-6,0.63835 0.5264274,1.16427 1.1647868,1.16427 0.638359,0 1.16427,-0.52591 1.16427,-1.16427 0,-0.63836 -0.525919,-1.16272 -1.16427,-1.16272 z m 3.103687,0 c -0.638355,0 -1.163229,0.52436 -1.163237,1.16272 0,0.63836 0.524876,1.16427 1.163237,1.16427 0.638351,0 1.164277,-0.52592 1.164269,-1.16427 0,-0.63835 -0.525918,-1.16272 -1.164269,-1.16272 z m 3.105236,0 c -0.638352,0 -1.16478,0.52437 -1.164787,1.16272 0,0.63835 0.526427,1.16427 1.164787,1.16427 0.638351,0 1.16427,-0.52592 1.16427,-1.16427 -6e-6,-0.63835 -0.525925,-1.16272 -1.16427,-1.16272 z m -6.208923,3.10368 c -0.6383594,10e-6 -1.1647948,0.52591 -1.1647868,1.16427 0,0.63835 0.5264356,1.16427 1.1647868,1.16427 0.638351,1e-5 1.16427,-0.52591 1.16427,-1.16427 0,-0.63836 -0.525911,-1.16427 -1.16427,-1.16427 z m 3.103687,0 c -0.638361,0 -1.163237,0.52591 -1.163237,1.16427 8e-6,0.63836 0.524882,1.16428 1.163237,1.16427 0.638351,0 1.164269,-0.52592 1.164269,-1.16427 8e-6,-0.63836 -0.525918,-1.16426 -1.164269,-1.16427 z m 3.105236,0 c -0.63836,10e-6 -1.164787,0.52591 -1.164787,1.16427 7e-6,0.63835 0.526435,1.16427 1.164787,1.16427 0.638345,0 1.164264,-0.52592 1.16427,-1.16427 0,-0.63836 -0.525919,-1.16426 -1.16427,-1.16427 z m 2.32854,0 a 0.38809321,0.38809321 0 0 0 -0.274918,0.66301 l 1.940966,1.93942 a 0.38809321,0.38809321 0 0 0 0.548804,0 l 1.9389,-1.93942 a 0.38809321,0.38809321 0 0 0 -0.273368,-0.66301 z"/></g></svg>