<?xml version="1.0" ?><!DOCTYPE svg  PUBLIC '-//W3C//DTD SVG 1.1//EN'  'http://www.w3.org/Graphics/SVG/1.1/DTD/svg11.dtd'><svg enable-background="new 0 0 128 128" height="128px" id="Layer_1" version="1.1" viewBox="0 0 128 128" width="128px" xml:space="preserve" xmlns="http://www.w3.org/2000/svg" xmlns:xlink="http://www.w3.org/1999/xlink"><g id="contact_x5F_details"><path d="M121.362,49.435c0.613-3.361-1.615-6.582-4.976-7.195L47.562,29.696c-3.361-0.613-6.582,1.615-7.195,4.976   L31.14,85.295c-0.613,3.361,1.615,6.582,4.976,7.195l68.823,12.544c3.361,0.613,6.582-1.615,7.195-4.976L121.362,49.435z" fill="#E89E0A"/><path d="M121.362,49.435c0.613-3.361-1.615-6.582-4.976-7.195L47.562,29.696c-3.361-0.613-6.582,1.615-7.195,4.976   L31.14,85.295c-0.613,3.361,1.615,6.582,4.976,7.195l68.823,12.544c3.361,0.613,6.582-1.615,7.195-4.976L121.362,49.435z" opacity="0.1"/><path d="M120.77,42.012l-45.073,28.11L43.515,27.932c-1.417,0.893-2.351,2.369-2.673,4.137l-9.29,50.968   c-0.61,3.347,1.349,6.987,4.696,7.597l69.225,12.617c3.347,0.61,6.464-2.105,7.074-5.452l9.29-50.968   C122.159,45.063,121.781,43.348,120.77,42.012z" fill="#F2BA34"/><path d="M76.265,69.869l-4.95,27.155l34.157,6.226c3.347,0.61,6.464-2.105,7.074-5.452l9.29-50.968   c0.322-1.768-0.018-3.476-1.03-4.812L76.265,69.869z" fill="#E89E0A"/><path d="M77.457,60.75L32.706,88.347c0.892,1.045,2.092,2.022,3.542,2.286l69.225,12.617   c1.449,0.264,2.917-0.227,4.12-0.89L77.457,60.75z" opacity="0.1"/><path d="M76.625,65.314L32.706,88.347c0.892,1.045,2.092,2.022,3.542,2.286l69.225,12.617   c1.449,0.264,2.917-0.227,4.12-0.89L76.625,65.314z" fill="#F2A825"/><path d="M41.277,30.757l32.944,47.748l47.671-33.052c-0.445-2.467-2.372-4.522-4.974-4.997L47.693,27.839   C45.091,27.365,42.564,28.606,41.277,30.757z" opacity="0.2"/><path d="M41.429,29.922l33.63,43.982l46.988-29.304c-0.445-2.467-2.362-4.578-4.964-5.053L47.859,26.929   C45.257,26.455,42.716,27.77,41.429,29.922z" fill="#FCCF4F"/><path d="M47.361,29.66l69.225,12.617c1.782,0.325,3.192,1.623,4.081,3.058l1.398-0.829   c-0.445-2.467-2.379-4.485-4.981-4.959L47.859,26.929c-2.602-0.474-5.143,0.841-6.43,2.992l1.041,1.128   C43.808,30.021,45.58,29.335,47.361,29.66z" fill="#FFFFFF" opacity="0.2"/><path d="M29.279,70.227c7.192-7.79,7.145-8.225,6.811-11.731c-0.334-3.506-5.225-7.814-8.516-9.258   c0.044-6.033,4.27-11.192,13.86-18.788c9.934-7.368,15.953-10.061,21.79-8.534c0.892,4.66,3.063,9.204,6.771,10.595   c3.707,1.392,3.707,1.392,13.099-3.528c9.391-4.919,12.014-10.138,11.449-12.091c-0.565-1.953-3.156-9.888-17.191-15.085   c-7.975,1.045-22.757,4.609-42.001,17.611c-0.507,0.343-2.479,1.854-2.941,2.254C14.852,36.876,7.591,50.207,4.508,57.636   c1.37,14.903,8.37,19.46,10.109,20.513C16.356,79.201,22.088,78.016,29.279,70.227z" fill="#2F71B1"/><path d="M29.279,70.227c7.192-7.79,7.145-8.225,6.811-11.731c-0.172-1.805-1.554-3.819-3.301-5.549L8.378,71.387   c2.43,4.341,5.226,6.148,6.239,6.761C16.356,79.201,22.088,78.016,29.279,70.227z" fill="#253B4B"/><path d="M65.46,28.269c1.129,1.972,2.627,3.526,4.535,4.242c3.707,1.392,3.707,1.392,13.099-3.528   c9.391-4.919,12.014-10.138,11.449-12.09c-0.313-1.081-1.251-3.997-4.404-7.266L65.46,28.269z" fill="#253B4B"/><path d="M60.157,96.872l6.117,1.115c1.189-1.519,2.77-2.426,4.31-2.426c0.872,0,1.907,0.2,2.344,0.4l-0.673,3.116   l5.899,1.075l1.369-7.263c-1.744-0.95-4.796-1.673-7.684-1.673C66.812,91.216,62.695,93.395,60.157,96.872z" opacity="0.1"/><path d="M70.747,81.361c-10.606,0-18.152,5.741-21.541,13.515l4.745,0.865c3.245-6.812,10.089-10.781,16.033-10.781   c10.083,0,15.478,6.249,15.478,14.399c0,0.754-0.046,1.446-0.115,2.105l4.545,0.828c0.126-0.926,0.202-1.897,0.202-2.93   C90.095,89.811,83.61,81.361,70.747,81.361z" opacity="0.1"/><path d="M76.69,120.233c-3.815,2-7.194,2.6-11.499,2.6c-11.717,0-19.565-8.2-19.565-19.8   c0-12.2,8.829-23.25,23.544-23.25c12.862,0,19.348,8.45,19.348,18c0,9.35-5.396,14.659-11.772,14.659   c-3.379,0-5.287-2.441-5.559-5.441h-0.163c-1.581,3-4.632,5.441-8.393,5.441c-3.978,0-6.813-3.355-6.813-8.204   c0-8.25,5.94-14.528,14.442-14.528c2.888,0,5.94,0.686,7.684,1.637l-1.962,10.393c-0.872,4.5-0.109,6.247,1.853,6.297   c2.343,0,6.049-2.702,6.049-10.252c0-8.15-5.395-14.401-15.478-14.401c-8.12,0-17.93,7.4-17.93,19.35   c0,10.2,7.085,16.4,15.532,16.4c3.325,0,6.485-0.75,9.32-2.35L76.69,120.233z M71.349,94.382c-0.436-0.2-1.471-0.4-2.344-0.4   c-3.052,0-6.267,3.55-6.267,8.4c0,2.05,0.763,3.7,2.78,3.7c2.071,0,3.924-3,4.633-6.15L71.349,94.382z" fill="#00A388"/><path d="M75.292,116.783c-2.53,1.428-5.292,2.175-8.292,2.32v3.685c4-0.169,6.395-0.855,9.637-2.555L75.292,116.783z   " opacity="0.1"/><path d="M69.133,79.782c-0.715,0-1.133,0.034-2.133,0.085v3.585c1-0.043,0.93-0.069,1.37-0.069   c10.083,0,15.496,6.25,15.496,14.401c0,7.55-3.697,10.251-6.04,10.251c-1.962-0.05-2.721-1.799-1.849-6.299l1.964-10.397   c-1.744-0.95-4.83-1.644-7.719-1.644c-1.109,0-2.223,0.109-3.223,0.313v4.444c1-0.299,1.321-0.468,1.97-0.468   c0.872,0,1.925,0.2,2.361,0.4l-1.226,5.55C69.581,102.264,68,104.51,67,105.521v5.653c2-0.989,3.129-3.175,4.022-4.175h0.163   c0.273,3,2.18,5.441,5.559,5.441c6.376,0,11.754-5.278,11.754-14.629C88.499,88.263,81.996,79.782,69.133,79.782z" opacity="0.1"/></g></svg>