<?xml version="1.0" ?><svg id="Layer_1" style="enable-background:new 0 0 48 48;" version="1.1" viewBox="0 0 48 48" xml:space="preserve" xmlns="http://www.w3.org/2000/svg" xmlns:xlink="http://www.w3.org/1999/xlink"><g><path d="M24,2.3C12.7,2.3,0.5,4.6,0.5,9.6v4.9c0,1,0.4,2,1.2,2.6c0.7,0.6,1.5,0.9,2.4,0.7l7-0.9c1.6-0.2,2.8-1.7,2.8-3.4v-2.3   c1.1-0.5,4.6-1.1,10.2-1.1s9.1,0.7,10.2,1.1v2.3c0,1.7,1.2,3.2,2.8,3.4l7,0.9c0.1,0,0.3,0,0.4,0c0.7,0,1.4-0.3,2-0.8   c0.7-0.6,1.2-1.6,1.2-2.6V9.6C47.5,4.6,35.3,2.3,24,2.3z M44.5,14.4c0,0.3-0.1,0.4-0.2,0.4l-7-0.9c0,0-0.2-0.2-0.2-0.4v-2.9   c0-2.4-4.4-3.6-13.2-3.6s-13.2,1.2-13.2,3.6v2.9c0,0.2-0.1,0.4-0.2,0.4l-7,0.9c0,0-0.2-0.1-0.2-0.4V9.6c0-1.2,7.2-4.3,20.5-4.3   s20.5,3,20.5,4.3V14.4z"/><path d="M17.2,11.6v3.6C11.2,18.3,6.5,25.4,4.4,34.4c-0.7,3.1,0,6.4,1.8,8.6c1.4,1.7,3.2,2.7,5.2,2.7h25.2c2,0,3.8-0.9,5.2-2.7   c1.8-2.3,2.5-5.6,1.8-8.6c-2.1-9-6.8-16.1-12.7-19.2v-3.6h-3v3h-7.6v-3H17.2z M40.6,35.1c0.5,2.2,0,4.5-1.2,6.1   c-0.8,1-1.8,1.5-2.8,1.5H11.4c-1,0-2-0.5-2.8-1.5c-1.3-1.6-1.7-3.9-1.2-6.1c1.9-8.4,6.3-15,11.7-17.5h9.9   C34.3,20.1,38.7,26.6,40.6,35.1z"/><rect height="3" width="3.9" x="15.3" y="25.7"/><rect height="3" width="3.9" x="22" y="25.7"/><rect height="3" width="3.9" x="28.8" y="25.7"/><rect height="3" width="3.9" x="15.3" y="31"/><rect height="3" width="3.9" x="22" y="31"/><rect height="3" width="3.9" x="28.8" y="31"/><rect height="3" width="3.9" x="15.3" y="36.3"/><rect height="3" width="3.9" x="22" y="36.3"/><rect height="3" width="3.9" x="28.8" y="36.3"/></g></svg>