<?xml version="1.0" ?><!DOCTYPE svg  PUBLIC '-//W3C//DTD SVG 1.1//EN'  'http://www.w3.org/Graphics/SVG/1.1/DTD/svg11.dtd'><svg height="64px" id="Layer_1" style="enable-background:new 0 0 64 64;" version="1.1" viewBox="0 0 64 64" width="64px" xml:space="preserve" xmlns="http://www.w3.org/2000/svg" xmlns:xlink="http://www.w3.org/1999/xlink"><g><line style="fill:none;stroke:#27AAE1;stroke-width:2;stroke-linecap:round;stroke-linejoin:round;stroke-miterlimit:10;" x1="10.573" x2="4.05" y1="21.833" y2="21.833"/><line style="fill:none;stroke:#27AAE1;stroke-width:2;stroke-linecap:round;stroke-linejoin:round;stroke-miterlimit:10;" x1="59.853" x2="53.577" y1="21.833" y2="21.833"/></g><g><line style="fill:none;stroke:#27AAE1;stroke-width:2;stroke-linecap:round;stroke-linejoin:round;stroke-miterlimit:10;" x1="52.099" x2="48.046" y1="1.686" y2="5.739"/></g><g><line style="fill:none;stroke:#27AAE1;stroke-width:2;stroke-linecap:round;stroke-linejoin:round;stroke-miterlimit:10;" x1="11.706" x2="15.759" y1="1.588" y2="5.641"/></g><g><g><path d="    M25.957,45.06l-1.646-1.646C23.534,42.636,22.898,41.1,22.898,40v-1.502c0-1.1-0.735-2.519-1.634-3.153    c0,0-6.457-4.557-6.457-13.32C14.807,12.623,22.429,5,31.832,5c9.403,0,17.025,7.623,17.025,17.025    c0,8.762-6.457,13.32-6.457,13.32c-0.899,0.634-1.634,2.053-1.634,3.153V40c0,1.1-0.636,2.636-1.414,3.414l-1.461,1.461" style="fill:none;stroke:#231F20;stroke-width:2;stroke-linecap:round;stroke-linejoin:round;stroke-miterlimit:10;"/></g><path d="   M36.017,45h1c1.105,0,2,0.895,2,2l0,0c0,1.105-0.895,2-2,2h-10c-1.105,0-2-0.895-2-2l0,0c0-1.105,0.895-2,2-2H35.5" style="fill:none;stroke:#231F20;stroke-width:2;stroke-linecap:round;stroke-linejoin:round;stroke-miterlimit:10;"/><path d="   M37.017,49c1.105,0,2,0.895,2,2l0,0c0,1.105-0.895,2-2,2h-10c-1.105,0-2-0.895-2-2l0,0c0-1.105,0.895-2,2-2" style="fill:none;stroke:#231F20;stroke-width:2;stroke-linecap:round;stroke-linejoin:round;stroke-miterlimit:10;"/><path d="   M37.017,53c1.105,0,2,0.895,2,2l0,0c0,1.105-0.895,2-2,2h-10c-1.105,0-2-0.895-2-2l0,0c0-1.105,0.895-2,2-2" style="fill:none;stroke:#231F20;stroke-width:2;stroke-linecap:round;stroke-linejoin:round;stroke-miterlimit:10;"/><path d="   M35.017,57.5c0,1.657-1.343,3-3,3c-1.657,0-3-1.343-3-3" style="fill:none;stroke:#231F20;stroke-width:2;stroke-linecap:round;stroke-linejoin:round;stroke-miterlimit:10;"/></g><g><path d="   M30.054,40V22.111c0-1.718-1.393-3.111-3.111-3.111s-3.111,1.393-3.111,3.111c0,1.718,1.393,3.111,3.111,3.111l3.111,0.194" style="fill:none;stroke:#27AAE1;stroke-width:2;stroke-linecap:round;stroke-linejoin:round;stroke-miterlimit:10;"/><path d="   M33.61,40V22.111c0-1.718,1.393-3.111,3.111-3.111s3.111,1.393,3.111,3.111c0,1.718-1.393,3.111-3.111,3.111L33.61,25.03" style="fill:none;stroke:#27AAE1;stroke-width:2;stroke-linecap:round;stroke-linejoin:round;stroke-miterlimit:10;"/></g><g><line style="fill:none;stroke:#27AAE1;stroke-width:2;stroke-linecap:round;stroke-linejoin:round;stroke-miterlimit:10;" x1="12.399" x2="6.434" y1="13.187" y2="10.548"/><line style="fill:none;stroke:#27AAE1;stroke-width:2;stroke-linecap:round;stroke-linejoin:round;stroke-miterlimit:10;" x1="57.469" x2="51.729" y1="33.118" y2="30.58"/></g><g><line style="fill:none;stroke:#27AAE1;stroke-width:2;stroke-linecap:round;stroke-linejoin:round;stroke-miterlimit:10;" x1="51.503" x2="57.469" y1="13.187" y2="10.548"/><line style="fill:none;stroke:#27AAE1;stroke-width:2;stroke-linecap:round;stroke-linejoin:round;stroke-miterlimit:10;" x1="6.434" x2="12.174" y1="33.118" y2="30.58"/></g><g/><g/><g/><g/><g/><g/></svg>