<?xml version="1.0" ?><svg viewBox="0 0 32 32" xmlns="http://www.w3.org/2000/svg"><defs><style>.cls-1{fill:none;stroke:#000;stroke-linejoin:round;stroke-width:2px;}</style></defs><title/><g data-name="14-call" id="_14-call"><polygon class="cls-1" points="22.98 22.98 21.98 23.98 19.98 23.98 7.98 11.98 7.98 9.98 8.98 8.98 11.98 5.98 6.98 0.98 3.98 3.98 0.98 6.98 0.98 12.98 18.98 30.98 24.98 30.98 25.02 31.02 28.02 28.02 31.02 25.02 30.98 24.98 25.98 19.98 22.98 22.98"/><line class="cls-1" x1="22.98" x2="27.98" y1="22.98" y2="27.98"/><line class="cls-1" x1="3.98" x2="8.98" y1="3.98" y2="8.98"/><path class="cls-1" d="M21,7a3,3,0,1,1,3,3v2"/><line class="cls-1" x1="23" x2="25" y1="14" y2="14"/><polygon class="cls-1" points="17 1 17 8 13 12 17 12 17 17 31 17 31 1 17 1"/></g></svg>