<?xml version="1.0" ?><svg enable-background="new 0 0 24 24" viewBox="0 0 24 24" xmlns="http://www.w3.org/2000/svg"><path d="m16.331 24c-.044 0-.089-.002-.133-.005-8.61-.667-15.572-7.624-16.193-16.184-.034-.463.125-.923.437-1.261.31-.335.731-.521 1.188-.525l3.553-.025c.757 0 1.413.509 1.596 1.237l.742 2.947c.162.64-.077 1.31-.609 1.706l-1.474 1.098c1.246 2.309 3.177 4.25 5.5 5.529l1.139-1.507c.396-.526 1.065-.762 1.71-.604l2.968.737c.734.182 1.245.834 1.245 1.586v3.637c0 .456-.185.877-.52 1.188-.31.287-.723.446-1.149.446z" fill="#607d8b"/><path d="m17.25 13.5c-3.722 0-6.75-3.028-6.75-6.75s3.028-6.75 6.75-6.75 6.75 3.028 6.75 6.75-3.028 6.75-6.75 6.75z" fill="#2196f3"/><g fill="#fff"><path d="m17.25 10.5c-.552 0-1-.448-1-1v-5.5c0-.552.448-1 1-1s1 .448 1 1v5.5c0 .552-.448 1-1 1z"/><path d="m20 7.75h-5.5c-.552 0-1-.448-1-1s.448-1 1-1h5.5c.552 0 1 .448 1 1s-.448 1-1 1z"/></g></svg>