<?xml version="1.0" ?><svg viewBox="0 0 512 512" xmlns="http://www.w3.org/2000/svg"><defs><style>.cls-1{fill:#f5f6f7;}.cls-2{fill:#dae1ea;}.cls-3{fill:#8cc0f4;}.cls-4{opacity:0.2;}.cls-5{fill:#3f456b;}.cls-6{fill:#fff;}.cls-7{fill:#9398aa;}.cls-8{opacity:0.25;}.cls-9{fill:#b2c6ed;}.cls-10{opacity:0.3;}.cls-11{fill:#f0f3f7;}.cls-12{opacity:0.7;}.cls-13{opacity:0.15;}.cls-14{fill:#d5f7ed;}.cls-15{opacity:0.5;}</style></defs><title/><g id="Colors"><rect class="cls-1" height="448" width="375" x="96" y="15"/><path class="cls-2" d="M495,53a10,10,0,0,0-10-10H456a10,10,0,0,0-10,10V65.19c16.33,1,32.67.76,49,.82Z"/><path class="cls-3" d="M446,65.19V402a10,10,0,0,0,10,10h29a10,10,0,0,0,10-10V66C478.67,66,462.33,66.19,446,65.19Z"/><g class="cls-4"><rect class="cls-5" height="369" rx="9" ry="9" width="18" x="477" y="43"/></g><g class="cls-4"><rect class="cls-6" height="369" width="14" x="456" y="43"/></g><g class="cls-4"><rect class="cls-5" height="16" width="48" x="446" y="173"/></g><g class="cls-4" data-name="&lt;编组&gt;" id="_编组_"><path class="cls-5" d="M495,395v7a10,10,0,0,1-10,10H456a10,10,0,0,1-10-10v-7Z"/></g><path class="cls-7" d="M381.86,468.18a27.45,27.45,0,0,1-27.54,27.38l-310.06-.85a27.46,27.46,0,0,1-27.39-27.54l1-355.64A27.45,27.45,0,0,1,45.39,84.15L174,79l181.48,6a27.46,27.46,0,0,1,27.39,27.53Z"/><g class="cls-8"><path class="cls-5" d="M353.14,422.18l-.11,39.9a9.29,9.29,0,0,1-9.31,9.25l-39.89-.11a9.27,9.27,0,0,1-9.25-9.3l.11-39.9.11-41.83.11-39.9a9.28,9.28,0,0,1,9.3-9.25l39.9.11a9.28,9.28,0,0,1,9.25,9.31l-.11,39.89Z"/><rect class="cls-5" height="58.45" rx="9.28" ry="9.28" transform="translate(-365.68 516.04) rotate(-89.84)" width="58.45" x="46.66" y="412.14"/><rect class="cls-5" height="58.45" rx="9.28" ry="9.28" transform="translate(-283.73 434.76) rotate(-89.84)" width="58.45" x="46.89" y="330.41"/><rect class="cls-5" height="58.45" rx="9.28" ry="9.28" transform="translate(-202.71 354.41) rotate(-89.84)" width="58.45" x="47.11" y="249.62"/><rect class="cls-5" height="58.45" rx="9.28" ry="9.28" transform="translate(-283.48 598.92) rotate(-89.84)" width="58.45" x="129.32" y="412.37"/><rect class="cls-5" height="58.45" rx="9.28" ry="9.28" transform="translate(-201.53 517.65) rotate(-89.84)" width="58.45" x="129.54" y="330.64"/><rect class="cls-5" height="58.45" rx="9.28" ry="9.28" transform="translate(-120.51 437.29) rotate(-89.84)" width="58.45" x="129.77" y="249.84"/><rect class="cls-5" height="58.45" rx="9.28" ry="9.28" transform="translate(-202.21 680.87) rotate(-89.84)" width="58.45" x="211.05" y="412.59"/><rect class="cls-5" height="58.45" rx="9.28" ry="9.28" transform="translate(-120.26 599.6) rotate(-89.84)" width="58.45" x="211.27" y="330.87"/><rect class="cls-5" height="58.45" rx="9.28" ry="9.28" transform="translate(-39.24 519.24) rotate(-89.84)" width="58.45" x="211.49" y="250.07"/><rect class="cls-5" height="58.45" rx="9.28" ry="9.28" transform="translate(43.89 603.06) rotate(-89.84)" width="58.45" x="295.08" y="250.3"/></g><path class="cls-9" d="M353.17,409.18l-.11,39.9a9.28,9.28,0,0,1-9.3,9.25l-39.9-.11a9.29,9.29,0,0,1-9.25-9.31l.11-39.89.12-41.83.11-39.9a9.28,9.28,0,0,1,9.3-9.25l39.89.11a9.28,9.28,0,0,1,9.26,9.3l-.11,39.9Z"/><g class="cls-10"><path class="cls-6" d="M17.84,117.27s-4.61-12.71,22.34-18.21S155.35,92.88,200.86,93h.93c45.51.12,132.8,1.29,159.72,6.94s22.24,18.32,22.24,18.32,4.72-27.54-28.7-33.2S146.13,76.14,37.44,84.2C37.44,84.2,13.28,87.23,17.84,117.27Z"/></g><g class="cls-10"><path class="cls-6" d="M47.82,188.66S44.49,217,67.71,217.09l261.9.72s23.64.91,23.72-28.31c0,0-1.85,12.65-20.66,12.6l-262.13-.72S52.89,203,47.82,188.66Z"/></g><g class="cls-8"><path class="cls-5" d="M17.82,462.13S14,494.63,43.73,494.71l310.19.85s27.86.08,27.95-31.5c0,0-3.76,15.85-25.12,15.8L46.56,479S22.41,479.79,17.82,462.13Z"/></g><rect class="cls-11" height="58.45" rx="9.28" ry="9.28" transform="translate(-352.65 503.11) rotate(-89.84)" width="58.45" x="46.7" y="399.14"/><g class="cls-4"><rect class="cls-5" height="58.45" transform="translate(-374.53 524.82) rotate(-89.84)" width="14.8" x="68.46" y="420.96"/></g><g class="cls-12"><rect class="cls-6" height="58.45" transform="translate(-330.33 480.97) rotate(-89.84)" width="13.93" x="69.02" y="376.88"/></g><rect class="cls-11" height="58.45" rx="9.28" ry="9.28" transform="translate(-270.7 421.83) rotate(-89.84)" width="58.45" x="46.92" y="317.41"/><g class="cls-4"><rect class="cls-5" height="58.45" transform="translate(-292.58 443.54) rotate(-89.84)" width="14.8" x="68.69" y="339.24"/></g><g class="cls-12"><rect class="cls-6" height="58.45" transform="translate(-248.38 399.7) rotate(-89.84)" width="13.93" x="69.25" y="295.15"/></g><rect class="cls-11" height="58.45" rx="9.28" ry="9.28" transform="translate(-189.68 341.48) rotate(-89.84)" width="58.45" x="47.15" y="236.61"/><g class="cls-4"><rect class="cls-5" height="58.45" transform="translate(-211.56 363.19) rotate(-89.84)" width="14.8" x="68.91" y="258.44"/></g><g class="cls-12"><rect class="cls-6" height="58.45" transform="translate(-167.36 319.34) rotate(-89.84)" width="13.93" x="69.47" y="214.35"/></g><rect class="cls-11" height="58.45" rx="9.28" ry="9.28" transform="translate(-270.45 585.99) rotate(-89.84)" width="58.45" x="129.36" y="399.37"/><g class="cls-4"><rect class="cls-5" height="58.45" transform="translate(-292.33 607.7) rotate(-89.84)" width="14.8" x="151.12" y="421.19"/></g><g class="cls-12"><rect class="cls-6" height="58.45" transform="translate(-248.13 563.86) rotate(-89.84)" width="13.93" x="151.68" y="377.11"/></g><rect class="cls-11" height="58.45" rx="9.28" ry="9.28" transform="translate(-188.5 504.72) rotate(-89.84)" width="58.45" x="129.58" y="317.64"/><g class="cls-4"><rect class="cls-5" height="58.45" transform="translate(-210.38 526.42) rotate(-89.84)" width="14.8" x="151.34" y="339.46"/></g><g class="cls-12"><rect class="cls-6" height="58.45" transform="translate(-166.17 482.58) rotate(-89.84)" width="13.93" x="151.9" y="295.38"/></g><rect class="cls-11" height="58.45" rx="9.28" ry="9.28" transform="translate(-107.48 424.36) rotate(-89.84)" width="58.45" x="129.8" y="236.84"/><g class="cls-4"><rect class="cls-5" height="58.45" transform="translate(-129.36 446.07) rotate(-89.84)" width="14.8" x="151.57" y="258.67"/></g><g class="cls-12"><rect class="cls-6" height="58.45" transform="translate(-85.15 402.22) rotate(-89.84)" width="13.93" x="152.12" y="214.58"/></g><rect class="cls-11" height="58.45" rx="9.28" ry="9.28" transform="translate(-189.17 667.94) rotate(-89.84)" width="58.45" x="211.08" y="399.59"/><g class="cls-4"><rect class="cls-5" height="58.45" transform="translate(-211.05 689.65) rotate(-89.84)" width="14.8" x="232.85" y="421.42"/></g><g class="cls-12"><rect class="cls-6" height="58.45" transform="translate(-166.85 645.81) rotate(-89.84)" width="13.93" x="233.4" y="377.33"/></g><rect class="cls-11" height="58.45" rx="9.28" ry="9.28" transform="translate(-107.22 586.67) rotate(-89.84)" width="58.45" x="211.31" y="317.86"/><g class="cls-4"><rect class="cls-5" height="58.45" transform="translate(-129.1 608.37) rotate(-89.84)" width="14.8" x="233.07" y="339.69"/></g><g class="cls-12"><rect class="cls-6" height="58.45" transform="translate(-84.9 564.53) rotate(-89.84)" width="13.93" x="233.63" y="295.6"/></g><rect class="cls-11" height="58.45" rx="9.28" ry="9.28" transform="translate(-26.2 506.31) rotate(-89.84)" width="58.45" x="211.53" y="237.07"/><g class="cls-4"><rect class="cls-5" height="58.45" transform="translate(-48.08 528.02) rotate(-89.84)" width="14.8" x="233.29" y="258.89"/></g><g class="cls-12"><rect class="cls-6" height="58.45" transform="translate(-3.88 484.18) rotate(-89.84)" width="13.93" x="233.85" y="214.81"/></g><g class="cls-13"><rect class="cls-5" height="58.45" transform="translate(-127.93 773.46) rotate(-89.84)" width="14.8" x="316.43" y="421.65"/></g><g class="cls-10"><rect class="cls-6" height="58.45" transform="translate(-1.77 648.34) rotate(-89.84)" width="13.93" x="317.21" y="295.83"/></g><rect class="cls-11" height="58.45" rx="9.28" ry="9.28" transform="translate(56.93 590.13) rotate(-89.84)" width="58.45" x="295.11" y="237.3"/><g class="cls-4"><rect class="cls-5" height="58.45" transform="translate(35.04 611.83) rotate(-89.84)" width="14.8" x="316.88" y="259.12"/></g><g class="cls-12"><rect class="cls-6" height="58.45" transform="translate(79.25 567.99) rotate(-89.84)" width="13.93" x="317.43" y="215.04"/></g><rect class="cls-14" height="306.4" rx="18.31" ry="18.31" transform="translate(41.87 357.58) rotate(-89.84)" width="87.87" x="156.28" y="4.6"/><g class="cls-4"><g data-name="&lt;编组&gt;" id="_编组_2"><path class="cls-6" d="M247.21,114l-79.44,87.66-102.56-.28A18.32,18.32,0,0,1,47,183l.14-51.25a18.3,18.3,0,0,1,18.35-18.26Z"/></g></g><g class="cls-13"><path class="cls-5" d="M353.31,142.65s3.33-28.36-19.89-28.42l-261.9-.72s-23.64-.91-23.72,28.3c0,0,1.85-12.65,20.66-12.6l262.13.72S348.24,128.28,353.31,142.65Z"/></g><g class="cls-15"><path class="cls-5" d="M321.34,186h0l-11.9,0a14.15,14.15,0,0,1-14.12-14.19l.07-25.63a14.17,14.17,0,0,1,14.15-14.11h0l11.9,0a14.17,14.17,0,0,1,14.12,14.19h0l-.07,25.63A14.18,14.18,0,0,1,321.34,186Zm-11.82-44a4.17,4.17,0,0,0-4.16,4.14l-.07,25.63a4.15,4.15,0,0,0,4.14,4.16l11.9,0h0a4.17,4.17,0,0,0,4.16-4.14l.07-25.63a4.16,4.16,0,0,0-4.14-4.17l-11.9,0Zm21.05,4.21h0Z"/></g><g class="cls-10"><path class="cls-5" d="M416,61H160a5,5,0,0,1,0-10H416a5,5,0,0,1,0,10Z"/></g><g class="cls-10"><path class="cls-5" d="M416,101H377a5,5,0,0,1,0-10h39a5,5,0,0,1,0,10Z"/></g><g class="cls-10"><path class="cls-5" d="M416,141H383a5,5,0,0,1,0-10h33a5,5,0,0,1,0,10Z"/></g><g class="cls-10"><path class="cls-5" d="M416,181H383a5,5,0,0,1,0-10h33a5,5,0,0,1,0,10Z"/></g><g class="cls-10"><path class="cls-5" d="M416,221H383a5,5,0,0,1,0-10h33a5,5,0,0,1,0,10Z"/></g><g class="cls-10"><path class="cls-5" d="M416,261H383a5,5,0,0,1,0-10h33a5,5,0,0,1,0,10Z"/></g><g class="cls-10"><path class="cls-5" d="M416,301H383a5,5,0,0,1,0-10h33a5,5,0,0,1,0,10Z"/></g><g class="cls-10"><path class="cls-5" d="M416,341H383a5,5,0,0,1,0-10h33a5,5,0,0,1,0,10Z"/></g><g class="cls-10"><path class="cls-5" d="M416,381H383a5,5,0,0,1,0-10h33a5,5,0,0,1,0,10Z"/></g><g class="cls-10"><path class="cls-5" d="M416,421H383a5,5,0,0,1,0-10h33a5,5,0,0,1,0,10Z"/></g></g><g id="Lines"><path class="cls-5" d="M485,417H456a15,15,0,0,1-15-15V53a15,15,0,0,1,15-15h29a15,15,0,0,1,15,15V402A15,15,0,0,1,485,417ZM456,48a5,5,0,0,0-5,5V402a5,5,0,0,0,5,5h29a5,5,0,0,0,5-5V53a5,5,0,0,0-5-5Z"/><rect class="cls-5" height="10" width="49" x="446" y="184"/><rect class="cls-5" height="10" width="49" x="446" y="60"/><path class="cls-5" d="M471,468H382.5a5,5,0,0,1,0-10H466V412.47a5,5,0,0,1,10,0V463A5,5,0,0,1,471,468Z"/><path class="cls-5" d="M96,86.08a5,5,0,0,1-5-5V15a5,5,0,0,1,5-5H471a5,5,0,0,1,5,5V43a5,5,0,0,1-10,0V20H101V81.08A5,5,0,0,1,96,86.08Z"/><path class="cls-5" d="M354.4,500.56h-.09l-310.06-.85a32.5,32.5,0,0,1-32.38-32.55l1-355.64c.05-16.74,13.18-30,31.93-32.34l.22,0c.63,0,64.17-4.89,151.27-4.63S355.1,80,355.82,80l.23,0c19.36,2.35,31.83,15.11,31.79,32.52l-.36,131-5,0,5,0-.62,224.68A32.5,32.5,0,0,1,354.4,500.56ZM45.89,89.12c-11.46,1.45-23,8.93-23,22.42l-1,355.65a22.49,22.49,0,0,0,22.4,22.52l310.07.85h.06a22.48,22.48,0,0,0,22.46-22.39l1-355.65c0-12.16-8.73-20.79-22.87-22.54-3.36-.25-73.73-5.22-158.73-5.45S49,88.89,45.89,89.12Z"/><path class="cls-5" d="M335,207.11H335l-269.79-.74A23.33,23.33,0,0,1,42,183l.14-51.26a23.3,23.3,0,0,1,23.3-23.24h.07l269.79.74a23.33,23.33,0,0,1,23.24,23.37l-.14,51.26A23.3,23.3,0,0,1,335,207.11ZM65.39,118.49a13.3,13.3,0,0,0-13.3,13.27L52,183a13.32,13.32,0,0,0,13.27,13.35l269.78.74a13.43,13.43,0,0,0,9.43-3.87,13.24,13.24,0,0,0,3.92-9.4h0l.14-51.26a13.32,13.32,0,0,0-13.27-13.35l-269.79-.74Z"/><path class="cls-5" d="M95.82,462.65h0l-39.9-.11a14.31,14.31,0,0,1-14.24-14.32l.11-39.9A14.29,14.29,0,0,1,56,394.08h0l39.9.11a14.29,14.29,0,0,1,14.24,14.32l-.11,39.9a14.29,14.29,0,0,1-14.28,14.24ZM56,404.08a4.3,4.3,0,0,0-4.28,4.27l-.11,39.9a4.3,4.3,0,0,0,4.27,4.29l39.9.11h0a4.3,4.3,0,0,0,4.28-4.27h0l.11-39.9a4.24,4.24,0,0,0-1.25-3,4.28,4.28,0,0,0-3-1.27L56,404.08Z"/><path class="cls-5" d="M96,380.92h0l-39.89-.11a14.27,14.27,0,0,1-14.24-14.32L42,326.6a14.27,14.27,0,0,1,14.28-14.24h0l39.89.11a14.27,14.27,0,0,1,14.24,14.31l-.11,39.9A14.29,14.29,0,0,1,96,380.92ZM56.26,322.36A4.27,4.27,0,0,0,52,326.62l-.11,39.9a4.27,4.27,0,0,0,4.27,4.29l39.89.11h0a4.28,4.28,0,0,0,4.28-4.27h0l.11-39.89a4.27,4.27,0,0,0-4.27-4.29l-39.89-.11Z"/><path class="cls-5" d="M96.27,300.12h0L56.33,300a14.29,14.29,0,0,1-14.24-14.32l.11-39.89a14.29,14.29,0,0,1,14.28-14.24h0l39.89.11A14.27,14.27,0,0,1,110.65,246l-.11,39.89h0A14.29,14.29,0,0,1,96.27,300.12ZM56.48,241.56a4.29,4.29,0,0,0-4.28,4.27l-.11,39.89A4.29,4.29,0,0,0,56.36,290l39.89.11h0a4.28,4.28,0,0,0,4.28-4.27l.11-39.89a4.27,4.27,0,0,0-4.26-4.29l-39.9-.11Zm49.06,44.31h0Z"/><path class="cls-5" d="M178.47,462.87h0l-39.89-.11a14.27,14.27,0,0,1-14.24-14.31l.11-39.9a14.29,14.29,0,0,1,14.28-14.24h0l39.89.11a14.29,14.29,0,0,1,14.24,14.32l-.11,39.89A14.29,14.29,0,0,1,178.47,462.87Zm-39.78-58.56a4.28,4.28,0,0,0-4.28,4.27l-.11,39.89a4.27,4.27,0,0,0,4.27,4.29l39.89.11h0a4.27,4.27,0,0,0,4.28-4.26h0l.11-39.9a4.28,4.28,0,0,0-4.27-4.29l-39.89-.11Z"/><path class="cls-5" d="M178.7,381.15h0l-39.9-.11a14.27,14.27,0,0,1-14.23-14.32l.1-39.9a14.31,14.31,0,0,1,14.28-14.24h0l39.9.11A14.31,14.31,0,0,1,193.09,327l-.11,39.9h0A14.31,14.31,0,0,1,178.7,381.15Zm-39.79-58.57a4.3,4.3,0,0,0-4.28,4.27l-.1,39.9a4.19,4.19,0,0,0,1.24,3,4.3,4.3,0,0,0,3,1.27l39.9.11h0a4.3,4.3,0,0,0,4.28-4.27l.11-39.9a4.3,4.3,0,0,0-4.27-4.29l-39.9-.11ZM188,366.89h0Z"/><path class="cls-5" d="M178.92,300.35h0L139,300.24a14.27,14.27,0,0,1-14.24-14.32l.11-39.89a14.27,14.27,0,0,1,14.27-14.24h0l39.9.11a14.29,14.29,0,0,1,14.24,14.31l-.11,39.9a14.29,14.29,0,0,1-14.28,14.24Zm-39.79-58.56a4.27,4.27,0,0,0-4.27,4.26l-.11,39.9a4.27,4.27,0,0,0,4.26,4.29l39.9.11h0a4.28,4.28,0,0,0,4.28-4.27h0l.11-39.89A4.28,4.28,0,0,0,179,241.9l-39.89-.11Z"/><path class="cls-5" d="M260.2,463.1h0L220.27,463A14.27,14.27,0,0,1,206,448.67l.11-39.89a14.29,14.29,0,0,1,14.27-14.24h0l39.9.11A14.29,14.29,0,0,1,274.59,409l-.11,39.9h0A14.3,14.3,0,0,1,260.2,463.1Zm-39.78-58.56a4.27,4.27,0,0,0-4.28,4.26L216,448.7a4.27,4.27,0,0,0,4.26,4.29l39.9.11h0a4.29,4.29,0,0,0,4.28-4.27l.11-39.89a4.28,4.28,0,0,0-4.27-4.29l-39.89-.11Zm49.06,44.31h0Z"/><path class="cls-5" d="M260.43,381.37h0l-39.9-.11a14.29,14.29,0,0,1-14.24-14.32l.11-39.89a14.27,14.27,0,0,1,14.28-14.24h0l39.89.11a14.27,14.27,0,0,1,14.24,14.32l-.11,39.89a14.27,14.27,0,0,1-14.27,14.24Zm-39.79-58.56a4.27,4.27,0,0,0-4.28,4.27L216.25,367a4.28,4.28,0,0,0,4.27,4.29l39.89.11h0a4.27,4.27,0,0,0,4.27-4.27h0l.11-39.89a4.27,4.27,0,0,0-4.26-4.29l-39.9-.11Z"/><path class="cls-5" d="M260.65,300.57h0l-39.9-.11a14.29,14.29,0,0,1-14.24-14.31l.11-39.9A14.31,14.31,0,0,1,220.86,232h0l39.9.11A14.3,14.3,0,0,1,275,246.44l-.11,39.89h0A14.31,14.31,0,0,1,260.65,300.57ZM220.86,242a4.29,4.29,0,0,0-4.28,4.27l-.11,39.89a4.28,4.28,0,0,0,4.27,4.29l39.9.11h0a4.29,4.29,0,0,0,4.28-4.26l.11-39.9a4.29,4.29,0,0,0-4.27-4.29l-39.9-.11Zm49.07,44.31h0Z"/><path class="cls-5" d="M343.79,463.33h0l-39.9-.11a14.3,14.3,0,0,1-14.24-14.32L290,327.28A14.27,14.27,0,0,1,304.22,313h0l39.9.11a14.29,14.29,0,0,1,14.24,14.32l-.34,121.62a14.29,14.29,0,0,1-14.27,14.24ZM304.22,323a4.27,4.27,0,0,0-4.27,4.27l-.34,121.62a4.29,4.29,0,0,0,4.27,4.29l39.89.11h0a4.28,4.28,0,0,0,4.27-4.27l.11-39.89h0l.23-81.73a4.29,4.29,0,0,0-4.27-4.29L304.24,323Z"/><path class="cls-5" d="M344.23,300.8h0l-39.89-.11a14.29,14.29,0,0,1-14.24-14.31l.11-39.9a14.29,14.29,0,0,1,14.28-14.24h0l39.89.11a14.27,14.27,0,0,1,14.24,14.32l-.11,39.89h0A14.29,14.29,0,0,1,344.23,300.8Zm-39.78-58.56a4.28,4.28,0,0,0-4.28,4.27l-.11,39.89a4.28,4.28,0,0,0,4.27,4.29l39.89.11a4.26,4.26,0,0,0,4.29-4.26l.11-39.9a4.27,4.27,0,0,0-4.27-4.29l-39.89-.11Zm49.06,44.31h0Z"/></g></svg>