<?xml version="1.0" encoding="UTF-8"?>
<!DOCTYPE svg PUBLIC "-//W3C//DTD SVG 1.1//EN" "http://www.w3.org/Graphics/SVG/1.1/DTD/svg11.dtd">
<svg xmlns="http://www.w3.org/2000/svg" version="1.1" width="512px" height="512px" style="shape-rendering:geometricPrecision; text-rendering:geometricPrecision; image-rendering:optimizeQuality; fill-rule:evenodd; clip-rule:evenodd" xmlns:xlink="http://www.w3.org/1999/xlink">
<g><path style="opacity:0.948" fill="#2c3e50" d="M 407.5,176.5 C 399.167,176.5 390.833,176.5 382.5,176.5C 350.907,147.683 319.24,118.85 287.5,90C 283.219,93.2194 278.552,96.2194 273.5,99C 256.306,105.151 241.473,101.651 229,88.5C 195.64,117.699 162.473,147.032 129.5,176.5C 120.833,176.5 112.167,176.5 103.5,176.5C 142.639,141.532 181.973,106.699 221.5,72C 218.483,44.6812 230.65,29.5145 258,26.5C 281.289,28.1205 294.122,40.6205 296.5,64C 295.545,67.4714 295.378,70.9714 296,74.5C 333.524,108.167 370.691,142.167 407.5,176.5 Z M 382.5,176.5 C 298.167,176.5 213.833,176.5 129.5,176.5C 162.473,147.032 195.64,117.699 229,88.5C 241.473,101.651 256.306,105.151 273.5,99C 278.552,96.2194 283.219,93.2194 287.5,90C 319.24,118.85 350.907,147.683 382.5,176.5 Z"/></g>
<g><path style="opacity:0.999" fill="#e04f5f" d="M -0.5,176.5 C 34.1667,176.5 68.8333,176.5 103.5,176.5C 112.167,176.5 120.833,176.5 129.5,176.5C 213.833,176.5 298.167,176.5 382.5,176.5C 390.833,176.5 399.167,176.5 407.5,176.5C 442.167,176.5 476.833,176.5 511.5,176.5C 511.5,279.167 511.5,381.833 511.5,484.5C 340.833,484.5 170.167,484.5 -0.5,484.5C -0.5,381.833 -0.5,279.167 -0.5,176.5 Z"/></g>
<g><path style="opacity:1" fill="#fefcfc" d="M 96.5,274.5 C 108.157,273.61 119.49,275.11 130.5,279C 131.516,279.519 132.182,280.353 132.5,281.5C 130.966,287.65 129.132,293.65 127,299.5C 116.487,294.076 105.653,293.243 94.5,297C 87.8333,302.333 87.8333,307.667 94.5,313C 103.833,317.333 113.167,321.667 122.5,326C 138.68,337.586 141.847,352.086 132,369.5C 125.159,377.898 116.326,382.731 105.5,384C 94.3828,385.039 83.3828,384.372 72.5,382C 69.8041,381.235 67.3041,380.068 65,378.5C 65.2294,371.579 66.7294,364.913 69.5,358.5C 80.188,364.11 91.5213,365.943 103.5,364C 110.966,361.968 113.8,357.135 112,349.5C 110.093,345.961 107.26,343.461 103.5,342C 90.544,338.443 79.3773,331.943 70,322.5C 61.3291,304.995 65.1624,290.828 81.5,280C 86.4466,277.692 91.4466,275.859 96.5,274.5 Z"/></g>
<g><path style="opacity:1" fill="#fefcfc" d="M 192.5,274.5 C 224.272,272.444 243.772,286.777 251,317.5C 253.002,334.161 250.002,349.828 242,364.5C 232.914,376.631 220.748,383.464 205.5,385C 175.13,386.293 156.63,372.126 150,342.5C 146.631,323.65 150.631,306.65 162,291.5C 170.56,282.807 180.727,277.14 192.5,274.5 Z"/></g>
<g><path style="opacity:1" fill="#fefffe" d="M 268.5,276.5 C 276.167,276.5 283.833,276.5 291.5,276.5C 291.5,305.5 291.5,334.5 291.5,363.5C 305.5,363.5 319.5,363.5 333.5,363.5C 333.5,369.833 333.5,376.167 333.5,382.5C 311.833,382.5 290.167,382.5 268.5,382.5C 268.5,347.167 268.5,311.833 268.5,276.5 Z"/></g>
<g><path style="opacity:1" fill="#ed97a0" d="M 291.5,276.5 C 292.498,304.995 292.831,333.662 292.5,362.5C 306.677,362.171 320.677,362.504 334.5,363.5C 334.167,363.5 333.833,363.5 333.5,363.5C 319.5,363.5 305.5,363.5 291.5,363.5C 291.5,334.5 291.5,305.5 291.5,276.5 Z"/></g>
<g><path style="opacity:1" fill="#fefcfc" d="M 352.5,383.5 C 351.791,382.596 350.791,382.263 349.5,382.5C 349.174,347.427 349.507,312.427 350.5,277.5C 369.979,274.358 389.313,274.858 408.5,279C 431.625,286.564 443.292,302.564 443.5,327C 442.967,360.194 426.301,378.861 393.5,383C 379.838,384.639 366.171,384.806 352.5,383.5 Z"/></g>
<g><path style="opacity:1" fill="#f7d7da" d="M 350.5,277.5 C 349.507,312.427 349.174,347.427 349.5,382.5C 350.791,382.263 351.791,382.596 352.5,383.5C 351.167,383.5 349.833,383.5 348.5,383.5C 347.84,347.818 348.507,312.484 350.5,277.5 Z"/></g>
<g><path style="opacity:1" fill="#e0505f" d="M 193.5,294.5 C 210.787,292.737 221.287,300.404 225,317.5C 227.126,331.19 225.126,344.19 219,356.5C 209.921,366.227 199.421,368.061 187.5,362C 180.32,355.808 176.153,347.975 175,338.5C 172.404,324.289 175.571,311.622 184.5,300.5C 187.084,297.72 190.084,295.72 193.5,294.5 Z"/></g>
<g><path style="opacity:1" fill="#e0505f" d="M 373.5,294.5 C 409.68,292.519 423.514,309.186 415,344.5C 411.746,354.719 404.913,361.219 394.5,364C 387.563,365.288 380.563,365.788 373.5,365.5C 373.5,341.833 373.5,318.167 373.5,294.5 Z"/></g>
<g><path style="opacity:1" fill="#fbebed" d="M 268.5,276.5 C 268.5,311.833 268.5,347.167 268.5,382.5C 290.167,382.5 311.833,382.5 333.5,382.5C 333.5,376.167 333.5,369.833 333.5,363.5C 333.833,363.5 334.167,363.5 334.5,363.5C 334.5,370.167 334.5,376.833 334.5,383.5C 312.167,383.5 289.833,383.5 267.5,383.5C 267.168,347.663 267.502,311.996 268.5,276.5 Z"/></g>
</svg>
