<?xml version="1.0" ?><!DOCTYPE svg  PUBLIC '-//W3C//DTD SVG 1.1//EN'  'http://www.w3.org/Graphics/SVG/1.1/DTD/svg11.dtd'><svg enable-background="new 0 0 400 400" height="400px" id="Layer_1" version="1.1" viewBox="0 0 400 400" width="400px" xml:space="preserve" xmlns="http://www.w3.org/2000/svg" xmlns:xlink="http://www.w3.org/1999/xlink"><g><g><g><path d="M299.035,313.614l-39.912-54.935c-7.956-10.906-23.647-13.107-34.971-4.869l-27.687,20.102     c-1.367-1.072-2.789-2.189-4.293-3.363c-13.764-10.748-32.606-25.479-50.886-50.67c-18.35-25.252-26.54-47.746-32.537-64.178     c-0.631-1.744-1.23-3.416-1.835-5.012l18.568-13.474l9.135-6.645c11.344-8.245,14.093-23.843,6.16-34.774l-39.914-54.943     c-7.933-10.92-23.631-13.115-34.971-4.87L50.397,47.313l0.309,0.421c-5.387,5.008-10.179,11.01-14.092,17.683     c-3.639,6.359-6.263,12.572-8.022,18.932c-14.483,50.922,1.728,102.132,55.912,176.721     c74.912,103.081,147.691,107.722,150.835,107.881c6.874,0.264,13.582-0.316,20.547-1.825c7.488-1.64,14.677-4.337,21.107-7.902     l0.243,0.304l15.645-11.118C304.203,340.164,306.957,324.559,299.035,313.614z" fill="#ED1C24"/></g></g></g><g><polygon fill="#ED1C24" points="299.3,118.162 351.747,65.708 329.165,43.189 276.72,95.637 224.273,43.189 201.747,65.708    254.195,118.162 201.747,170.666 224.273,193.189 276.72,140.737 329.165,193.189 351.747,170.666  "/></g></svg>