<?xml version="1.0" encoding="UTF-8"?>
<svg version="1.1" xmlns="http://www.w3.org/2000/svg" width="512" height="512">
<path d="M0 0 C1.66541197 -0.00576172 1.66541197 -0.00576172 3.36446863 -0.01163983 C4.57904055 -0.01077335 5.79361246 -0.00990687 7.04498959 -0.00901413 C8.98655206 -0.01347081 8.98655206 -0.01347081 10.96733803 -0.01801753 C14.55857837 -0.02607626 18.14979871 -0.02787648 21.74104702 -0.028615 C25.61512259 -0.03046756 29.48918783 -0.038016 33.36325741 -0.04475021 C41.83456984 -0.05832687 50.30587753 -0.06435744 58.77719903 -0.06876087 C64.06911999 -0.07152488 69.36103914 -0.07576257 74.65295887 -0.08026505 C89.31097868 -0.0924577 103.96899702 -0.10275646 118.62702179 -0.10614014 C119.56502782 -0.1063597 120.50303385 -0.10657927 121.4694643 -0.10680549 C122.40969175 -0.10702377 123.3499192 -0.10724204 124.31863838 -0.10746694 C126.2238363 -0.1079104 128.12903422 -0.10835696 130.03423214 -0.10880661 C130.9792724 -0.10902804 131.92431267 -0.10924947 132.89799052 -0.10947761 C148.20232253 -0.11342347 163.50660687 -0.13087105 178.81092048 -0.15416613 C194.53187114 -0.17790174 210.25279789 -0.19034302 225.97376674 -0.19150805 C234.79711054 -0.19242366 243.62039225 -0.19814707 252.44371891 -0.21632767 C259.95900203 -0.2317586 267.47420386 -0.23683156 274.98949981 -0.22858956 C278.82086159 -0.2246934 282.65205984 -0.22556175 286.4834013 -0.23964691 C290.64573066 -0.25480826 294.80769451 -0.24648864 298.97003841 -0.23606491 C300.16899528 -0.24412132 301.36795214 -0.25217772 302.60324103 -0.26047826 C319.88705846 -0.15955247 334.47409962 5.91588141 346.721488 18.11189651 C357.8079661 29.90166461 362.63134533 44.75621671 362.57221127 60.67351151 C362.5734929 61.94301901 362.5734929 61.94301901 362.57480043 63.23817313 C362.57644398 66.06638259 362.5709523 68.89453238 362.56548214 71.72273636 C362.5652 73.7531522 362.56535853 75.78356814 362.56592464 77.81398392 C362.56621157 83.32172637 362.56033171 88.82944704 362.55335069 94.33718443 C362.54709976 100.09473911 362.54651197 105.85229429 362.54532528 111.60985184 C362.5422171 122.51069157 362.53401061 133.41152127 362.52397579 144.31235659 C362.51279873 156.7233828 362.50730018 169.13440949 362.50228035 181.54543948 C362.49182759 207.0741078 362.47423806 232.60276722 362.45195675 258.13142776 C363.01395779 258.18055817 363.57595882 258.22968857 364.1549902 258.28030777 C366.74687828 258.51111147 369.33764063 258.75284659 371.92851925 258.99470901 C373.25411861 259.11030167 373.25411861 259.11030167 374.60649776 259.22822952 C393.50970353 261.02459951 409.79053898 269.28782001 424.45195675 281.13142776 C425.08359737 281.59806839 425.715238 282.06470901 426.36601925 282.54549026 C443.89624519 296.08779751 454.31360425 319.74068352 457.45195675 341.13142776 C459.16194114 369.05016598 454.52827141 395.20753654 435.49834347 416.75642776 C417.72976967 436.28904067 395.07421252 449.18547537 368.377738 450.51424026 C344.91169005 451.17684906 323.62810383 446.12816534 304.45195675 432.13142776 C303.65968433 431.2826185 302.86741192 430.43380924 302.05113125 429.55927849 C297.47174909 425.76720594 292.10982348 426.44908115 286.43547726 426.51237869 C285.21516292 426.50613971 283.99484859 426.49990073 282.73755503 426.4934727 C279.35716012 426.48114104 275.9781659 426.49113721 272.59789276 426.51053381 C268.94940411 426.52598138 265.3010097 426.51250789 261.65251827 426.50244522 C255.33050803 426.48883193 249.00871452 426.49313099 242.68671322 426.50927734 C233.53097087 426.53237014 224.37544512 426.52502437 215.21969551 426.50974615 C200.34462349 426.48547155 185.46962078 426.48126853 170.59453487 426.49177933 C169.25935626 426.49271506 169.25935626 426.49271506 167.89720434 426.4936697 C166.09587569 426.49494094 164.29454704 426.49621518 162.49321839 426.49749241 C161.60030029 426.49812479 160.70738219 426.49875718 159.78740597 426.49940872 C158.8938036 426.50004687 158.00020124 426.50068501 157.07952002 426.5013425 C147.17046285 426.50813875 137.26140668 426.51013932 127.35234737 426.51033401 C126.46574069 426.51035685 125.579134 426.51037968 124.66566044 426.5104032 C109.8554474 426.51033384 95.0452606 426.49827041 80.23506021 426.47937453 C71.1093365 426.46843952 61.98375093 426.46919509 52.85803407 426.48531426 C46.59632536 426.49582206 40.33467199 426.4959814 34.07295948 426.48819612 C30.46614266 426.48412939 26.85950251 426.48494255 23.25270748 426.49912834 C19.32983617 426.51448894 15.4071981 426.50643456 11.48430538 426.49650955 C10.36189339 426.50476773 9.2394814 426.5130259 8.08305693 426.52153432 C-10.13467879 426.41294545 -26.0114585 420.96922295 -38.92304325 408.01814651 C-47.97018505 398.06898314 -54.65766588 385.03656968 -54.68226433 371.41438675 C-54.68895109 369.6924238 -54.68895109 369.6924238 -54.69577295 367.93567371 C-54.69558858 366.67898349 -54.69540422 365.42229326 -54.69521427 364.12752151 C-54.69851525 362.77541085 -54.70224131 361.42330117 -54.70635575 360.07119274 C-54.71635738 356.35646818 -54.72008959 352.64175977 -54.72274506 348.92702365 C-54.72665361 344.92000186 -54.7362316 340.9129928 -54.74495792 336.90597916 C-54.76470743 327.22901644 -54.7747869 317.5520527 -54.78368571 307.87507486 C-54.78807134 303.31516992 -54.79343746 298.75526613 -54.79867458 294.19536209 C-54.81568582 279.03208024 -54.83017905 263.86879911 -54.83742332 248.70550919 C-54.83933314 244.77179844 -54.84125348 240.8380877 -54.84320927 236.90437698 C-54.84369301 235.92670227 -54.84417675 234.94902755 -54.84467515 233.94172633 C-54.85297195 218.11103378 -54.87830343 202.28041687 -54.91078994 186.44975734 C-54.94388931 170.1875263 -54.96187471 153.92533367 -54.96506757 137.66306877 C-54.96723006 128.53618172 -54.9759405 119.40940497 -55.00152874 110.28255081 C-55.02327512 102.50816996 -55.03126686 94.73392619 -55.02156196 86.95951837 C-55.01702855 82.99634442 -55.01884712 79.0334531 -55.0383234 75.07031822 C-55.05603735 71.43421278 -55.05489162 67.79859442 -55.03942611 64.16248322 C-55.03595218 62.2406763 -55.05201474 60.31886378 -55.06903058 58.39712906 C-54.9560178 43.00321168 -49.55744399 28.59981296 -38.93085575 17.32674026 C-28.22777538 7.4658695 -14.85506212 0.01933657 0 0 Z " fill="#00B493" transform="translate(54.5480432510376,30.868572235107422)"/>
<path d="M0 0 C1.66541197 -0.00576172 1.66541197 -0.00576172 3.36446863 -0.01163983 C4.57904055 -0.01077335 5.79361246 -0.00990687 7.04498959 -0.00901413 C8.98655206 -0.01347081 8.98655206 -0.01347081 10.96733803 -0.01801753 C14.55857837 -0.02607626 18.14979871 -0.02787648 21.74104702 -0.028615 C25.61512259 -0.03046756 29.48918783 -0.038016 33.36325741 -0.04475021 C41.83456984 -0.05832687 50.30587753 -0.06435744 58.77719903 -0.06876087 C64.06911999 -0.07152488 69.36103914 -0.07576257 74.65295887 -0.08026505 C89.31097868 -0.0924577 103.96899702 -0.10275646 118.62702179 -0.10614014 C119.56502782 -0.1063597 120.50303385 -0.10657927 121.4694643 -0.10680549 C122.40969175 -0.10702377 123.3499192 -0.10724204 124.31863838 -0.10746694 C126.2238363 -0.1079104 128.12903422 -0.10835696 130.03423214 -0.10880661 C130.9792724 -0.10902804 131.92431267 -0.10924947 132.89799052 -0.10947761 C148.20232253 -0.11342347 163.50660687 -0.13087105 178.81092048 -0.15416613 C194.53187114 -0.17790174 210.25279789 -0.19034302 225.97376674 -0.19150805 C234.79711054 -0.19242366 243.62039225 -0.19814707 252.44371891 -0.21632767 C259.95900203 -0.2317586 267.47420386 -0.23683156 274.98949981 -0.22858956 C278.82086159 -0.2246934 282.65205984 -0.22556175 286.4834013 -0.23964691 C290.64573066 -0.25480826 294.80769451 -0.24648864 298.97003841 -0.23606491 C300.16899528 -0.24412132 301.36795214 -0.25217772 302.60324103 -0.26047826 C319.88705846 -0.15955247 334.47409962 5.91588141 346.721488 18.11189651 C357.72581043 29.81429726 362.63278186 44.62721589 362.57221127 60.4457283 C362.5734929 61.67848383 362.5734929 61.67848383 362.57480043 62.93614352 C362.57644348 65.68143644 362.57095312 68.42666784 362.56548214 71.17195511 C362.56519999 73.1432584 362.56535855 75.11456179 362.56592464 77.08586502 C362.56621153 82.43245586 362.56033235 87.77902425 362.55335069 93.12560987 C362.54709906 98.71500122 362.54651192 104.30439308 362.54532528 109.89378738 C362.54221731 120.47588356 362.5340111 131.0579694 362.52397579 141.64006102 C362.5127981 153.68833713 362.50730002 165.73661374 362.50228035 177.78489375 C362.49182805 202.56707748 362.47423892 227.34925205 362.45195675 252.13142776 C356.72981379 247.37437304 351.46057207 242.27616477 346.21196651 237.00496292 C345.31361584 236.10675827 344.41526516 235.20855362 343.48969173 234.28313065 C341.04579214 231.83951599 338.60497113 229.39284769 336.16472268 226.94558764 C333.60675002 224.38133052 331.04591324 221.81993685 328.48538876 219.2582283 C323.64578895 214.41553012 318.80874222 209.57029026 313.97262472 204.72411478 C308.46306866 199.20335103 302.95064628 193.68545305 297.43799031 188.16778493 C286.10613713 176.82550121 274.77785957 165.47965332 263.45195675 154.13142776 C257.33369273 159.19547044 251.73588197 164.70553425 246.12969112 170.32429886 C245.10575278 171.34687979 244.08160234 172.36924839 243.05725765 173.39142227 C240.29256011 176.15158539 237.53100583 178.91487298 234.77016544 181.67889357 C231.86949727 184.58210673 228.9663749 187.48286417 226.06365108 190.38402176 C221.18982203 195.25603506 216.31809689 200.13014468 211.44756222 205.0054512 C205.83211969 210.62633215 200.21308813 216.24360591 194.5921731 221.85901392 C189.75104704 226.69558827 184.91188963 231.53412585 180.07434416 236.37428153 C177.19182068 239.25835687 174.30864293 242.14176944 171.42368221 245.02340698 C168.70945 247.73473061 165.99771367 250.44852692 163.28780842 253.16417503 C162.29827401 254.15502125 161.30790714 255.14503698 160.31660557 256.13411522 C155.33868106 261.10191143 150.46877778 266.10048985 145.90717983 271.45590019 C143.86737138 273.80451281 141.68443275 275.96660256 139.45195675 278.13142776 C136.31845988 276.74104017 134.19679511 275.12400516 131.78197384 272.70195389 C130.71354244 271.63764648 130.71354244 271.63764648 129.62352657 270.55183792 C128.46690517 269.38443069 128.46690517 269.38443069 127.28691769 268.19343948 C126.46703365 267.3738475 125.64714962 266.55425552 124.80242062 265.70982742 C122.09229051 262.99830344 119.38931427 260.27976284 116.68633175 257.56111526 C114.80918246 255.68023606 112.93164475 253.79975289 111.05358028 251.91978836 C106.61561269 247.4756075 102.1827675 243.02635355 97.7517426 238.5752517 C92.70612266 233.507268 87.65481459 228.44497005 82.6030221 223.38314033 C72.21299577 212.97221548 61.83012603 202.55417271 51.45195675 192.13142776 C48.00749162 193.61476876 45.78046518 195.55793811 43.14331722 198.20628738 C42.28943417 199.05886627 41.43555111 199.91144516 40.55579281 200.78985977 C39.62732037 201.72709381 38.69884792 202.66432785 37.74223995 203.62996292 C36.74864875 204.62575592 35.75460859 205.62110111 34.76015377 206.61603165 C32.62210531 208.75701107 30.48724902 210.90110611 28.35481358 213.04767609 C24.98617056 216.43858099 21.61045736 219.82238729 18.23374081 223.20524979 C12.89761501 228.55275207 7.56618542 233.9049084 2.23678035 239.25910795 C-7.31809659 248.85835339 -16.87861662 258.4519709 -26.44430763 268.04043996 C-29.80351904 271.40808272 -33.15990146 274.77851328 -36.51407182 278.15117669 C-38.59506581 280.2427742 -40.67805693 282.33237417 -42.7615633 284.42146873 C-43.7311808 285.39457182 -44.69992484 286.36854608 -45.66775417 287.34342766 C-46.98301119 288.66806117 -48.30158372 289.98940024 -49.62035465 291.31053543 C-50.35904632 292.05274652 -51.09773798 292.79495762 -51.85881424 293.55965996 C-53.54804325 295.13142776 -53.54804325 295.13142776 -54.54804325 295.13142776 C-54.63940476 263.88639276 -54.71013918 232.64139326 -54.75230457 201.39625629 C-54.75730706 197.70275528 -54.76248438 194.00925455 -54.76776981 190.31575394 C-54.76881906 189.58048212 -54.7698683 188.84521031 -54.77094933 188.08765753 C-54.7883278 176.20122316 -54.81985129 164.31486662 -54.85665444 152.42847834 C-54.89413525 140.22089646 -54.91629415 128.01335518 -54.92439723 115.80571812 C-54.92987025 108.28030546 -54.94712059 100.75511283 -54.97970912 93.22976794 C-55.00346523 87.44747329 -55.00584515 81.66531785 -55.00047398 75.88298416 C-55.0015703 73.51958428 -55.00947177 71.15617571 -55.02486515 68.7928257 C-55.14623543 49.18976079 -53.03501674 32.28894907 -38.93085575 17.32674026 C-28.22777538 7.4658695 -14.85506212 0.01933657 0 0 Z " fill="#49566D" transform="translate(54.5480432510376,30.868572235107422)"/>
<path d="M0 0 C0.63164062 0.46664063 1.26328125 0.93328125 1.9140625 1.4140625 C19.44428844 14.95636974 29.8616475 38.60925575 33 60 C34.70998439 87.91873822 30.07631466 114.07610877 11.04638672 135.625 C-6.72218708 155.15761291 -29.37774422 168.05404761 -56.07421875 169.3828125 C-81.60876425 170.10382928 -106.82566981 163.8669895 -126 146 C-127.78981207 144.06348202 -129.51913229 142.09104172 -131.22265625 140.078125 C-132.34326135 138.76787904 -133.49380535 137.48213453 -134.68359375 136.234375 C-144.93463655 125.34412168 -150.82601992 112.16718405 -155 98 C-155.51046875 96.32744141 -155.51046875 96.32744141 -156.03125 94.62109375 C-162.29518874 70.52232944 -157.0038179 46.44077275 -145.37890625 25.01171875 C-132.11750475 3.0365906 -111.13594989 -13.391209 -86.21484375 -20.0625 C-55.00802935 -27.46274055 -24.82350731 -20.05262303 0 0 Z " fill="#FDFEFE" transform="translate(479,312)"/>
<path d="M0 0 C2.56027794 2.2402432 4.67266938 4.45866274 6.90625 7.0078125 C12.52599983 13.29815241 18.50042017 19.20127277 24.5 25.125 C26.65912854 27.25753517 28.81489588 29.39338943 30.96875 31.53125 C31.70611389 32.25616638 31.70611389 32.25616638 32.45837402 32.99572754 C36.20346017 36.71340654 37.18826549 38.61770536 37.375 43.875 C37.34022612 47.66535272 37.19701993 50.1750814 34.8125 53.1875 C30.96487752 56.52210615 28.59322292 57.45119386 23.5625 58 C17.61729742 57.3741892 14.36618074 54.06935954 10.3125 49.97265625 C9.68988281 49.34496338 9.06726563 48.71727051 8.42578125 48.07055664 C7.95527344 47.59352295 7.48476563 47.11648926 7 46.625 C6.99635437 47.37588898 6.99270874 48.12677795 6.98895264 48.90042114 C6.95101719 55.9920046 6.89410206 63.08312601 6.81609726 70.17436409 C6.77666111 73.81971102 6.74445412 77.46481781 6.72900391 81.11035156 C6.71381121 84.63143076 6.67932118 88.15184959 6.63169098 91.67263412 C6.60972868 93.66325582 6.60752851 95.65406394 6.60565186 97.64480591 C6.42275163 108.9684599 6.42275163 108.9684599 2 113.625 C-2.47548107 116.67646436 -6.70867264 117.57553785 -12 116.625 C-16.4868487 114.33924689 -18.78075347 112.10074338 -21 107.625 C-21.39872742 104.70793152 -21.39872742 104.70793152 -21.43237305 101.45776367 C-21.45216721 100.23687546 -21.47196136 99.01598724 -21.49235535 97.75810242 C-21.49874527 96.44960831 -21.50513519 95.1411142 -21.51171875 93.79296875 C-21.52857512 92.43246345 -21.54672666 91.07197363 -21.56611633 89.71150208 C-21.61351913 86.14251545 -21.64339087 82.57359161 -21.66955566 79.00439453 C-21.69941062 75.35762128 -21.74592388 71.71106417 -21.79101562 68.06445312 C-21.87693771 60.91809265 -21.94433205 53.77166539 -22 46.625 C-22.59167969 47.25148438 -23.18335938 47.87796875 -23.79296875 48.5234375 C-24.58316406 49.34070313 -25.37335938 50.15796875 -26.1875 51 C-27.35345703 52.21816406 -27.35345703 52.21816406 -28.54296875 53.4609375 C-32.04688281 56.54705577 -34.83377934 57.49777593 -39.4375 58 C-44.39554692 57.47810032 -47.32282719 55.48674207 -50.6328125 51.8125 C-53.21394361 47.68269022 -52.87637304 43.29462949 -52 38.625 C-50.19419394 35.41877292 -47.64363634 33.15566043 -45 30.625 C-43.70524848 29.20299521 -42.41121179 27.7802896 -41.12768555 26.34814453 C-35.41800461 20.01222803 -29.44059004 13.93149084 -23.4375 7.875 C-22.65141357 7.07594238 -21.86532715 6.27688477 -21.05541992 5.45361328 C-20.31396729 4.71095215 -19.57251465 3.96829102 -18.80859375 3.203125 C-18.14657959 2.53700195 -17.48456543 1.87087891 -16.80249023 1.18457031 C-12.21670342 -2.78319431 -5.2384685 -2.40096473 0 0 Z " fill="#01B594" transform="translate(424,328.375)"/>
<path d="M0 0 C0.67546875 0.3609375 1.3509375 0.721875 2.046875 1.09375 C7.4715022 4.45413853 10.7645264 9.61590439 14 15 C14.54720703 15.90492188 14.54720703 15.90492188 15.10546875 16.828125 C18.80210712 24.53379372 18.14468843 35.31525661 16.15625 43.453125 C12.33576231 53.52062634 5.60143206 61.15175213 -4 66 C-5.175625 66.598125 -6.35125 67.19625 -7.5625 67.8125 C-16.93651895 70.99856145 -27.40089223 69.88286274 -36.2109375 65.6796875 C-45.95793279 59.80964832 -52.65908559 52.20373014 -55.875 41.3125 C-58.64768141 28.57098718 -55.68369491 18.92619628 -48.80859375 8.12890625 C-45.46487723 3.64343287 -40.77538519 0.75315575 -36 -2 C-35.11054688 -2.51626953 -35.11054688 -2.51626953 -34.203125 -3.04296875 C-23.34442726 -8.16000994 -10.01444517 -5.52944825 0 0 Z " fill="#FDCB03" transform="translate(210,140)"/>
</svg>
